<svg width="190" height="160" viewBox="0 0 190 160" fill="none" xmlns="http://www.w3.org/2000/svg">
    <g clip-path="url(#clip0)">
        <path d="M89.2435 160C130.685 160 164.28 158.27 164.28 156.135C164.28 154.001 130.685 152.271 89.2435 152.271C47.8017 152.271 14.2066 154.001 14.2066 156.135C14.2066 158.27 47.8017 160 89.2435 160Z" fill="#4B4B4B"/>
        <path d="M133.083 37.1333H132.231V13.613C132.231 10.0026 130.807 6.54008 128.272 3.98715C125.737 1.43423 122.3 3.98613e-06 118.715 0H69.2404C65.6558 -6.83331e-06 62.2181 1.4342 59.6834 3.98712C57.1488 6.54004 55.7248 10.0025 55.7248 13.6129V142.648C55.7248 146.258 57.1487 149.72 59.6834 152.273C62.2181 154.826 65.6558 156.261 69.2403 156.261H118.715C122.299 156.261 125.737 154.826 128.272 152.273C130.807 149.721 132.231 146.258 132.231 142.648V53.8756H133.083L133.083 37.1333Z" fill="#4B4B4B"/>
        <path d="M129.354 13.708V142.553C129.354 145.249 128.291 147.835 126.398 149.741C124.505 151.648 121.938 152.719 119.261 152.719H69.5486C66.8716 152.719 64.3042 151.648 62.4113 149.741C60.5183 147.835 59.4549 145.249 59.4548 142.553V13.708C59.4549 11.0117 60.5183 8.42582 62.4113 6.51925C64.3042 4.61268 66.8716 3.54156 69.5486 3.5415H75.5792C75.2829 4.27494 75.1701 5.07049 75.2506 5.85817C75.3312 6.64584 75.6027 7.40151 76.0413 8.0587C76.4798 8.71588 77.072 9.25445 77.7657 9.62702C78.4595 9.9996 79.2335 10.1948 80.0196 10.1953H108.363C109.149 10.1947 109.923 9.99958 110.617 9.62701C111.311 9.25444 111.903 8.71587 112.341 8.05869C112.78 7.4015 113.052 6.64584 113.132 5.85816C113.213 5.07049 113.1 4.27494 112.804 3.5415H119.261C121.938 3.54155 124.505 4.61268 126.398 6.51925C128.291 8.42582 129.354 11.0117 129.354 13.708Z" fill="#919191"/>
        <path d="M113.34 69.2652C113.009 69.4392 112.673 69.6038 112.331 69.7591C112.02 69.9008 111.704 70.0339 111.383 70.1584C111.265 70.2035 111.146 70.2486 111.027 70.2937C110.083 70.6385 109.113 70.9077 108.127 71.0989C107.639 71.1955 107.145 71.2713 106.644 71.3264C106.23 71.3737 105.812 71.4073 105.39 71.4274C105.09 71.4424 104.789 71.4488 104.486 71.4488C103.288 71.4493 102.092 71.3365 100.914 71.1117C100.607 71.0559 100.306 70.9894 100.006 70.9164C98.5516 70.5654 97.1441 70.0422 95.8124 69.3576C95.6931 69.2974 95.5737 69.233 95.4543 69.1708C95.2773 69.0763 95.1047 68.9775 94.9321 68.8745C95.0151 68.7585 95.1048 68.6447 95.1963 68.5331C96.1938 67.288 97.4407 66.2686 98.8555 65.5414C100.27 64.8141 101.821 64.3953 103.408 64.3122C104.994 64.2292 106.58 64.4837 108.062 65.0593C109.544 65.6349 110.889 66.5186 112.009 67.6528C112.398 68.0458 112.759 68.4662 113.088 68.911C113.175 69.0269 113.259 69.145 113.34 69.2652Z" fill="#00B859"/>
        <path d="M104.912 59.8336C110.081 59.8336 114.272 55.6127 114.272 50.4058C114.272 45.199 110.081 40.978 104.912 40.978C99.7421 40.978 95.5513 45.199 95.5513 50.4058C95.5513 55.6127 99.7421 59.8336 104.912 59.8336Z" fill="#2F2E41"/>
        <path d="M107.401 59.847C110.777 57.9881 112.018 53.7247 110.172 50.3243C108.327 46.9238 104.094 45.6741 100.718 47.533C97.3417 49.3918 96.101 53.6553 97.9465 57.0557C99.792 60.4561 104.025 61.7058 107.401 59.847Z" fill="#A0616A"/>
        <path d="M111.38 49.2763C109.788 50.3815 107.898 50.9696 105.965 50.9618C106.655 51.4435 107.44 51.7689 108.266 51.9155C105.696 52.4709 103.039 52.4859 100.462 51.9597C99.8893 51.8672 99.3366 51.676 98.8283 51.3945C98.575 51.252 98.3543 51.0574 98.1805 50.8234C98.0068 50.5894 97.8839 50.3211 97.8198 50.0361C97.6486 49.0509 98.4108 48.1558 99.2029 47.5526C100.416 46.6431 101.814 46.0164 103.297 45.718C104.779 45.4196 106.309 45.4568 107.776 45.8271C108.734 46.0764 109.693 46.4977 110.315 47.2723C110.937 48.0469 111.121 49.2411 110.529 50.0388L111.38 49.2763Z" fill="#2F2E41"/>
        <path d="M104.486 32.8013C100.302 32.8006 96.2325 34.1779 92.8977 36.7232C89.5629 39.2685 87.1458 42.8422 86.0148 46.8996C84.8838 50.9569 85.1009 55.2755 86.633 59.1971C88.1651 63.1187 90.9282 66.4282 94.5012 68.6212L94.6249 68.6942C94.7272 68.7565 94.8295 68.8166 94.9318 68.8745C95.1045 68.9776 95.2771 69.0764 95.4541 69.1708C95.5734 69.2331 95.6928 69.2975 95.8122 69.3576C97.1439 70.0422 98.5514 70.5655 100.005 70.9164C100.306 70.9894 100.606 71.056 100.913 71.1118C102.091 71.3365 103.287 71.4494 104.486 71.4489C104.789 71.4489 105.09 71.4425 105.39 71.4274C105.812 71.4081 106.23 71.3745 106.644 71.3265C107.145 71.2707 107.639 71.1948 108.127 71.0989C109.113 70.9078 110.083 70.6385 111.026 70.2938C111.146 70.2487 111.265 70.2036 111.382 70.1585C111.704 70.034 112.02 69.9008 112.331 69.7591C112.672 69.6045 113.008 69.4399 113.339 69.2653C116.658 67.5148 119.401 64.832 121.235 61.5422C121.244 61.5251 121.254 61.5079 121.263 61.4907C122.242 59.7218 122.936 57.8079 123.32 55.8202C123.859 53.022 123.778 50.1383 123.081 47.3756C122.384 44.6129 121.089 42.0396 119.29 39.8398C117.49 37.6401 115.229 35.8684 112.67 34.6516C110.111 33.4347 107.316 32.8029 104.486 32.8013H104.486ZM120.913 61.2395C120.896 61.2695 120.881 61.2996 120.864 61.3275C119.067 64.5687 116.362 67.2059 113.088 68.911C112.762 69.0828 112.43 69.2438 112.092 69.3941C111.813 69.5208 111.527 69.6411 111.24 69.7527C111.118 69.7999 110.994 69.8472 110.871 69.8901C110.055 70.1901 109.22 70.4312 108.37 70.6115C107.74 70.7467 107.103 70.8477 106.462 70.9143C106.068 70.9572 105.667 70.9873 105.264 71.0023C105.006 71.013 104.746 71.0195 104.486 71.0195C103.326 71.0209 102.168 70.9123 101.029 70.6953C100.335 70.5664 99.6497 70.3973 98.9757 70.1886C97.949 69.8691 96.9513 69.4618 95.9934 68.9712C95.8826 68.9132 95.7717 68.8552 95.663 68.7951C95.5073 68.7114 95.3496 68.6255 95.1961 68.5332C95.081 68.4687 94.9659 68.4 94.8529 68.3313C94.7868 68.2927 94.7207 68.2519 94.6546 68.2111C91.522 66.2734 89.0231 63.452 87.4679 60.0969C85.9128 56.7418 85.3699 53.0007 85.9065 49.3376C86.4432 45.6745 88.0358 42.2508 90.4867 39.4911C92.9377 36.7313 96.1392 34.7571 99.694 33.8133C103.249 32.8696 107 32.9977 110.484 34.1819C113.967 35.3662 117.028 37.5543 119.288 40.475C121.547 43.3956 122.906 46.9202 123.195 50.6115C123.484 54.3027 122.691 57.9982 120.913 61.2395H120.913Z" fill="#4B4B4B"/>
        <path d="M100.171 41.1082C100.071 40.0415 98.7733 39.3848 97.7588 39.707C96.7442 40.0292 96.0781 41.0582 95.8767 42.1103C95.7799 42.5534 95.7708 43.0114 95.85 43.458C95.9292 43.9047 96.0951 44.3312 96.3383 44.7131C96.8512 45.4565 97.7936 45.9204 98.6726 45.7317C99.676 45.5162 100.371 44.5294 100.57 43.5156C100.769 42.5019 100.571 41.4567 100.374 40.4427L100.171 41.1082Z" fill="#2F2E41"/>
        <path d="M114.45 42.6319C114.349 41.5652 113.052 40.9085 112.038 41.2307C111.023 41.5529 110.357 42.5819 110.155 43.634C110.059 44.0771 110.05 44.5351 110.129 44.9817C110.208 45.4283 110.374 45.8548 110.617 46.2368C111.13 46.9801 112.072 47.4441 112.951 47.2554C113.955 47.0399 114.65 46.0531 114.849 45.0393C115.048 44.0256 114.85 42.9804 114.653 41.9663L114.45 42.6319Z" fill="#2F2E41"/>
        <path d="M71.3242 59.8478C71.1915 59.8476 71.0602 59.8196 70.9389 59.7655C70.8175 59.7113 70.7087 59.6323 70.6194 59.5333L60.0413 47.9104C59.9212 47.7788 59.7754 47.6737 59.613 47.6018C59.4506 47.5298 59.2751 47.4925 59.0977 47.4923H3.19957C2.35129 47.4914 1.53801 47.1515 0.938184 46.5474C0.338354 45.9432 0.000952411 45.1241 0 44.2697V23.9663C0.000951847 23.1119 0.338354 22.2927 0.938184 21.6886C1.53801 21.0844 2.35129 20.7446 3.19957 20.7437H75.6198C76.4681 20.7446 77.2814 21.0844 77.8812 21.6886C78.481 22.2927 78.8184 23.1119 78.8194 23.9663V44.2697C78.8184 45.1241 78.481 45.9432 77.8812 46.5474C77.2814 47.1515 76.4681 47.4914 75.6198 47.4923H73.5667C73.2273 47.4927 72.9019 47.6287 72.662 47.8704C72.422 48.1121 72.287 48.4398 72.2866 48.7816V58.8801C72.2875 59.0751 72.2294 59.2656 72.1201 59.4266C72.0108 59.5875 71.8555 59.7111 71.6748 59.781C71.5631 59.825 71.4442 59.8476 71.3242 59.8478Z" fill="white"/>
        <path d="M71.3242 59.8478C71.1915 59.8476 71.0602 59.8196 70.9389 59.7655C70.8175 59.7113 70.7087 59.6323 70.6194 59.5333L60.0413 47.9104C59.9212 47.7788 59.7754 47.6737 59.613 47.6018C59.4506 47.5298 59.2751 47.4925 59.0977 47.4923H3.19957C2.35129 47.4914 1.53801 47.1515 0.938184 46.5474C0.338354 45.9432 0.000952411 45.1241 0 44.2697V23.9663C0.000951847 23.1119 0.338354 22.2927 0.938184 21.6886C1.53801 21.0844 2.35129 20.7446 3.19957 20.7437H75.6198C76.4681 20.7446 77.2814 21.0844 77.8812 21.6886C78.481 22.2927 78.8184 23.1119 78.8194 23.9663V44.2697C78.8184 45.1241 78.481 45.9432 77.8812 46.5474C77.2814 47.1515 76.4681 47.4914 75.6198 47.4923H73.5667C73.2273 47.4927 72.9019 47.6287 72.662 47.8704C72.422 48.1121 72.287 48.4398 72.2866 48.7816V58.8801C72.2875 59.0751 72.2294 59.2656 72.1201 59.4266C72.0108 59.5875 71.8555 59.7111 71.6748 59.781C71.5631 59.825 71.4442 59.8476 71.3242 59.8478ZM3.19957 21.1731C2.46432 21.1739 1.75942 21.4685 1.23952 21.9921C0.719619 22.5158 0.427176 23.2257 0.426346 23.9663V44.2697C0.427177 45.0103 0.719622 45.7202 1.23952 46.2439C1.75942 46.7675 2.46432 47.0621 3.19957 47.0629H59.0977C59.3342 47.0632 59.5681 47.1128 59.7846 47.2088C60.0011 47.3047 60.1955 47.4448 60.3555 47.6202L70.9336 59.2431C71.0062 59.3229 71.1011 59.3788 71.2058 59.4033C71.3105 59.4279 71.4201 59.4201 71.5202 59.3808C71.6204 59.3416 71.7064 59.2728 71.7671 59.1834C71.8278 59.0941 71.8603 58.9883 71.8603 58.8801V48.7816C71.8608 48.326 72.0407 47.8891 72.3606 47.5669C72.6805 47.2447 73.1143 47.0634 73.5667 47.0629H75.6198C76.3551 47.0621 77.06 46.7675 77.5799 46.2439C78.0998 45.7202 78.3922 45.0103 78.393 44.2697V23.9663C78.3922 23.2257 78.0998 22.5158 77.5799 21.9921C77.06 21.4685 76.3551 21.1739 75.6198 21.1731H3.19957Z" fill="#4B4B4B"/>
        <path d="M7.84806 29.7002C9.39432 29.7002 10.6478 28.4376 10.6478 26.8802C10.6478 25.3228 9.39432 24.0603 7.84806 24.0603C6.3018 24.0603 5.04831 25.3228 5.04831 26.8802C5.04831 28.4376 6.3018 29.7002 7.84806 29.7002Z" fill="#00B859"/>
        <path d="M72.3532 42.4837H6.46569C6.26945 42.484 6.07509 42.4453 5.89372 42.3698C5.71235 42.2943 5.54753 42.1836 5.40868 42.0439C5.26984 41.9042 5.15969 41.7383 5.08454 41.5557C5.00938 41.3732 4.9707 41.1774 4.9707 40.9798C4.9707 40.7821 5.00938 40.5864 5.08454 40.4038C5.15969 40.2212 5.26984 40.0554 5.40868 39.9157C5.54753 39.776 5.71235 39.6653 5.89372 39.5898C6.07509 39.5143 6.26945 39.4756 6.46569 39.4758H72.3532C72.7489 39.4763 73.1282 39.635 73.4079 39.917C73.6875 40.199 73.8446 40.5812 73.8446 40.9798C73.8446 41.3784 73.6875 41.7606 73.4079 42.0426C73.1282 42.3246 72.7489 42.4833 72.3532 42.4837Z" fill="#E5E5E5"/>
        <path d="M50.8884 36.0919H6.46569C6.26945 36.0922 6.07509 36.0534 5.89372 35.978C5.71235 35.9025 5.54753 35.7917 5.40868 35.6521C5.26984 35.5124 5.15969 35.3465 5.08454 35.1639C5.00938 34.9813 4.9707 34.7856 4.9707 34.588C4.9707 34.3903 5.00938 34.1946 5.08454 34.012C5.15969 33.8294 5.26984 33.6635 5.40868 33.5239C5.54753 33.3842 5.71235 33.2734 5.89372 33.198C6.07509 33.1225 6.26945 33.0837 6.46569 33.084H50.8884C51.2844 33.084 51.6642 33.2424 51.9443 33.5245C52.2243 33.8065 52.3816 34.1891 52.3816 34.588C52.3816 34.9868 52.2243 35.3694 51.9443 35.6514C51.6642 35.9335 51.2844 36.0919 50.8884 36.0919Z" fill="#E5E5E5"/>
        <path d="M118.325 128.703C118.145 128.633 117.989 128.509 117.88 128.348C117.771 128.187 117.713 127.997 117.714 127.802V117.703C117.713 117.361 117.578 117.034 117.338 116.792C117.098 116.55 116.773 116.414 116.434 116.414H114.38C113.532 116.413 112.719 116.073 112.119 115.469C111.519 114.865 111.182 114.046 111.181 113.191V92.8879C111.182 92.0335 111.519 91.2144 112.119 90.6102C112.719 90.0061 113.532 89.6662 114.38 89.6653H186.801C187.649 89.6662 188.462 90.0061 189.062 90.6102C189.662 91.2144 189.999 92.0335 190 92.8879V113.191C189.999 114.046 189.662 114.865 189.062 115.469C188.462 116.073 187.649 116.413 186.801 116.414H130.903C130.725 116.414 130.55 116.451 130.387 116.523C130.225 116.595 130.079 116.7 129.959 116.832L119.381 128.455C119.292 128.554 119.183 128.633 119.061 128.687C118.94 128.741 118.809 128.769 118.676 128.769C118.556 128.769 118.437 128.747 118.325 128.703Z" fill="white"/>
        <path d="M118.325 128.703C118.145 128.633 117.989 128.509 117.88 128.348C117.771 128.187 117.713 127.997 117.714 127.802V117.703C117.713 117.361 117.578 117.034 117.338 116.792C117.098 116.55 116.773 116.414 116.434 116.414H114.38C113.532 116.413 112.719 116.073 112.119 115.469C111.519 114.865 111.182 114.046 111.181 113.191V92.8879C111.182 92.0335 111.519 91.2144 112.119 90.6102C112.719 90.0061 113.532 89.6662 114.38 89.6653H186.801C187.649 89.6662 188.462 90.0061 189.062 90.6102C189.662 91.2144 189.999 92.0335 190 92.8879V113.191C189.999 114.046 189.662 114.865 189.062 115.469C188.462 116.073 187.649 116.413 186.801 116.414H130.903C130.725 116.414 130.55 116.451 130.387 116.523C130.225 116.595 130.079 116.7 129.959 116.832L119.381 128.455C119.292 128.554 119.183 128.633 119.061 128.687C118.94 128.741 118.809 128.769 118.676 128.769C118.556 128.769 118.437 128.747 118.325 128.703ZM114.38 90.0947C113.645 90.0955 112.94 90.3901 112.42 90.9137C111.901 91.4374 111.608 92.1474 111.607 92.8879V113.191C111.608 113.932 111.901 114.642 112.42 115.166C112.94 115.689 113.645 115.984 114.38 115.985H116.434C116.886 115.985 117.32 116.166 117.64 116.489C117.96 116.811 118.139 117.248 118.14 117.703V127.802C118.14 127.91 118.172 128.016 118.233 128.105C118.294 128.194 118.38 128.263 118.48 128.302C118.58 128.342 118.69 128.35 118.795 128.325C118.899 128.3 118.994 128.245 119.067 128.165L129.645 116.542C129.805 116.366 129.999 116.226 130.216 116.13C130.432 116.034 130.666 115.985 130.903 115.985H186.801C187.536 115.984 188.241 115.689 188.761 115.165C189.281 114.642 189.573 113.932 189.574 113.191V92.8879C189.573 92.1474 189.281 91.4374 188.761 90.9137C188.241 90.3901 187.536 90.0955 186.801 90.0947H114.38Z" fill="#4B4B4B"/>
        <path d="M95.7526 134.99C92.7828 136.905 89.342 137.95 85.8159 138.006C82.2898 138.063 78.8177 137.129 75.7889 135.31C76.3217 134.311 76.9968 133.396 77.7928 132.594C79.0209 131.351 80.5156 130.408 82.1619 129.838C83.8082 129.267 85.5624 129.085 87.2898 129.304C89.0171 129.523 90.6715 130.138 92.126 131.102C93.5805 132.066 94.7963 133.352 95.6801 134.863C95.7035 134.904 95.7291 134.947 95.7526 134.99Z" fill="url(#paint0_linear)"/>
        <path d="M84.9371 124.722C90.1411 124.722 94.3597 120.473 94.3597 115.232C94.3597 109.99 90.1411 105.741 84.9371 105.741C79.7332 105.741 75.5145 109.99 75.5145 115.232C75.5145 120.473 79.7332 124.722 84.9371 124.722Z" fill="#2F2E41"/>
        <path d="M91.9486 121.926C93.8064 118.503 92.5574 114.211 89.1589 112.34C85.7604 110.469 81.4993 111.727 79.6415 115.15C77.7837 118.573 79.0327 122.865 82.4312 124.736C85.8297 126.607 90.0908 125.349 91.9486 121.926Z" fill="#FFB8B8"/>
        <path d="M78.4261 114.095C80.0287 115.207 81.9308 115.8 83.8771 115.792C83.1828 116.277 82.3925 116.604 81.5604 116.752C84.1482 117.311 86.8227 117.326 89.4166 116.796C89.9931 116.703 90.5495 116.511 91.0612 116.227C91.3162 116.084 91.5383 115.888 91.7132 115.652C91.8881 115.417 92.0118 115.147 92.0763 114.86C92.2487 113.868 91.4814 112.967 90.684 112.36C89.4632 111.444 88.0556 110.813 86.5631 110.513C85.0705 110.213 83.5303 110.25 82.0539 110.623C81.0899 110.874 80.1242 111.298 79.498 112.078C78.8718 112.857 78.6864 114.06 79.2829 114.863L78.4261 114.095Z" fill="#2F2E41"/>
        <path d="M85.5139 138.223C80.8992 138.222 76.4397 136.545 72.9535 133.499C69.4673 130.454 67.1881 126.245 66.5339 121.644C65.8797 117.043 66.8945 112.359 69.392 108.45C71.8896 104.542 75.7025 101.672 80.1313 100.366C84.5601 99.0599 89.3078 99.4061 93.5037 101.341C97.6996 103.276 101.062 106.669 102.975 110.899C104.887 115.129 105.221 119.912 103.916 124.37C102.611 128.828 99.7532 132.663 95.8678 135.17C92.7781 137.166 89.1843 138.226 85.5139 138.223ZM85.5139 100.005C81.8031 100.005 78.1756 101.113 75.0901 103.189C72.0046 105.265 69.5997 108.216 68.1795 111.669C66.7593 115.122 66.3876 118.922 67.1115 122.587C67.8353 126.253 69.6222 129.62 72.246 132.263C74.8699 134.906 78.213 136.705 81.8524 137.434C85.4919 138.164 89.2642 137.789 92.6924 136.359C96.1206 134.928 99.0507 132.506 101.112 129.398C103.173 126.291 104.273 122.637 104.273 118.899C104.267 113.89 102.289 109.088 98.7724 105.545C95.2556 102.003 90.4874 100.011 85.5139 100.005Z" fill="#4B4B4B"/>
        <path d="M120.19 98.4069C121.736 98.4069 122.99 97.1444 122.99 95.587C122.99 94.0296 121.736 92.7671 120.19 92.7671C118.644 92.7671 117.39 94.0296 117.39 95.587C117.39 97.1444 118.644 98.4069 120.19 98.4069Z" fill="url(#paint1_linear)"/>
        <path d="M184.695 111.191H118.808C118.612 111.191 118.417 111.152 118.236 111.077C118.055 111.001 117.89 110.89 117.751 110.751C117.612 110.611 117.502 110.445 117.427 110.263C117.352 110.08 117.313 109.884 117.313 109.687C117.313 109.489 117.352 109.293 117.427 109.111C117.502 108.928 117.612 108.762 117.751 108.622C117.89 108.483 118.055 108.372 118.236 108.297C118.417 108.221 118.612 108.182 118.808 108.183H184.695C185.091 108.183 185.471 108.341 185.751 108.623C186.031 108.905 186.189 109.288 186.189 109.687C186.189 110.085 186.031 110.468 185.751 110.75C185.471 111.032 185.091 111.191 184.695 111.191Z" fill="#E5E5E5"/>
        <path d="M163.231 104.799H118.808C118.612 104.799 118.417 104.76 118.236 104.685C118.055 104.609 117.89 104.499 117.751 104.359C117.612 104.219 117.502 104.054 117.427 103.871C117.352 103.688 117.313 103.493 117.313 103.295C117.313 103.097 117.352 102.902 117.427 102.719C117.502 102.536 117.612 102.371 117.751 102.231C117.89 102.091 118.055 101.98 118.236 101.905C118.417 101.83 118.612 101.791 118.808 101.791H163.231C163.626 101.791 164.006 101.95 164.285 102.232C164.565 102.514 164.722 102.896 164.722 103.295C164.722 103.694 164.565 104.076 164.285 104.358C164.006 104.64 163.626 104.798 163.231 104.799Z" fill="#E5E5E5"/>
        <path d="M118.235 130.625C121.12 130.625 123.459 130.363 123.459 130.041C123.459 129.718 121.12 129.457 118.235 129.457C115.35 129.457 113.011 129.718 113.011 130.041C113.011 130.363 115.35 130.625 118.235 130.625Z" fill="#E5E5E5"/>
        <path d="M71.5501 61.9179C74.435 61.9179 76.7737 61.6564 76.7737 61.3339C76.7737 61.0114 74.435 60.75 71.5501 60.75C68.6652 60.75 66.3265 61.0114 66.3265 61.3339C66.3265 61.6564 68.6652 61.9179 71.5501 61.9179Z" fill="#E5E5E5"/>
    </g>
    <defs>
        <linearGradient id="paint0_linear" x1="85.7707" y1="129.214" x2="85.7707" y2="138.009" gradientUnits="userSpaceOnUse">
            <stop stop-color="#FFE38C"/>
            <stop offset="1" stop-color="#F1CD5F"/>
        </linearGradient>
        <linearGradient id="paint1_linear" x1="120.19" y1="92.7671" x2="120.19" y2="98.4069" gradientUnits="userSpaceOnUse">
            <stop stop-color="#FFE38C"/>
            <stop offset="1" stop-color="#F1CD5F"/>
        </linearGradient>
        <clipPath id="clip0">
            <rect width="190" height="160" fill="white"/>
        </clipPath>
    </defs>
</svg>
