<svg width="266" height="160" viewBox="0 0 266 160" fill="none" xmlns="http://www.w3.org/2000/svg">
    <g clip-path="url(#clip0)">
        <path d="M176.74 159.662H75.7324C72.4201 159.662 69.2434 158.347 66.9013 156.008C64.5591 153.668 63.2433 150.495 63.2433 147.187V100.962C63.2433 100.291 63.3802 99.6268 63.6456 99.0101C63.9111 98.3934 64.2995 97.8372 64.7872 97.3754L118.311 46.6964C120.451 44.6702 123.287 43.5408 126.236 43.5408C129.185 43.5408 132.021 44.6702 134.161 46.6964L185.193 95.0162C186.468 96.2232 187.483 97.677 188.177 99.2889C188.871 100.901 189.229 102.637 189.229 104.392V147.187C189.229 148.825 188.906 150.447 188.278 151.961C187.651 153.474 186.731 154.849 185.571 156.008C184.411 157.166 183.034 158.085 181.519 158.712C180.004 159.339 178.38 159.662 176.74 159.662Z" fill="#CCCCCC"/>
        <path opacity="0.1" d="M63.2433 101.721H188.179V152.129C188.179 154.127 187.384 156.043 185.97 157.456C184.556 158.868 182.638 159.662 180.638 159.662H70.7846C68.7846 159.662 66.8664 158.868 65.4521 157.456C64.0378 156.043 63.2433 154.127 63.2433 152.129V101.721Z" fill="black"/>
        <path d="M165.69 62.002H86.5195C82.7243 62.002 79.6477 65.0751 79.6477 68.866V147.948C79.6477 151.738 82.7243 154.812 86.5195 154.812H165.69C169.485 154.812 172.562 151.738 172.562 147.948V68.866C172.562 65.0751 169.485 62.002 165.69 62.002Z" fill="url(#paint0_linear)"/>
        <path opacity="0.1" d="M172.562 103.806V154.812H79.6476V103.806L126.105 126.235L172.562 103.806Z" fill="black"/>
        <path d="M126.105 129.119L66.5782 100.38C66.21 100.202 65.8026 100.121 65.3943 100.143C64.986 100.166 64.5901 100.291 64.2436 100.508C63.8972 100.725 63.6117 101.027 63.4137 101.384C63.2158 101.742 63.1119 102.143 63.1119 102.552V151.998C63.1119 152.987 63.307 153.967 63.686 154.881C64.065 155.795 64.6205 156.625 65.3208 157.324C66.021 158.024 66.8524 158.579 67.7673 158.957C68.6823 159.336 69.663 159.531 70.6533 159.531H181.556C182.547 159.531 183.527 159.336 184.442 158.957C185.357 158.579 186.188 158.024 186.889 157.324C187.589 156.625 188.144 155.795 188.523 154.881C188.902 153.967 189.098 152.987 189.098 151.998V103.399C189.098 102.9 188.971 102.41 188.729 101.974C188.488 101.538 188.139 101.17 187.717 100.905C187.294 100.64 186.811 100.487 186.312 100.46C185.814 100.432 185.317 100.532 184.868 100.748L126.105 129.119Z" fill="#CCCCCC"/>
        <path d="M113.637 70.5227H87.6526V74.1931H113.637V70.5227Z" fill="#F2F2F2"/>
        <path d="M162.719 83.8936H85.5529V85.9909H162.719V83.8936Z" fill="#F2F2F2"/>
        <path d="M162.719 90.9722H85.5529V93.0696H162.719V90.9722Z" fill="#F2F2F2"/>
        <path d="M162.719 98.0508H85.5529V100.148H162.719V98.0508Z" fill="#F2F2F2"/>
        <path d="M15.9988 159.531H232.274" stroke="black" stroke-miterlimit="10"/>
        <path d="M0 127.247C0 142.705 9.70839 155.213 21.7061 155.213L0 127.247Z" fill="#00B859"/>
        <path d="M21.7062 155.213C21.7062 139.582 32.5402 126.933 45.9289 126.933L21.7062 155.213Z" fill="url(#paint1_linear)"/>
        <path d="M7.86353 128.648C7.86353 143.332 14.0544 155.213 21.7051 155.213L7.86353 128.648Z" fill="url(#paint2_linear)"/>
        <path d="M21.7062 155.213C21.7062 135.24 34.2286 119.077 49.7039 119.077L21.7062 155.213Z" fill="#00B859"/>
        <path d="M17.1396 155.41C17.1396 155.41 20.2179 155.316 21.1456 154.656C22.0734 153.996 25.8808 153.208 26.111 154.266C26.3411 155.324 30.737 159.53 27.2617 159.558C23.7863 159.586 19.1865 159.017 18.2606 158.453C17.3346 157.89 17.1396 155.41 17.1396 155.41Z" fill="#A8A8A8"/>
        <path opacity="0.2" d="M27.3237 159.189C23.8483 159.217 19.2485 158.649 18.3226 158.085C17.6174 157.656 17.3364 156.117 17.2424 155.406C17.1773 155.409 17.1396 155.41 17.1396 155.41C17.1396 155.41 17.3346 157.89 18.2606 158.453C19.1865 159.017 23.7863 159.586 27.2617 159.558C28.2649 159.55 28.6114 159.193 28.5924 158.665C28.453 158.984 28.0704 159.183 27.3237 159.189Z" fill="black"/>
        <path d="M188.903 42.6742C188.745 44.078 187.673 45.2088 187.276 46.5646C186.678 48.6052 187.712 50.795 189.126 52.3843C190.267 53.6531 191.649 54.6831 193.191 55.4147C194.734 56.1462 196.406 56.5646 198.111 56.6458C198.612 56.6898 199.117 56.6348 199.597 56.4841C200.025 56.3119 200.411 56.0486 200.727 55.7125C201.792 54.6444 202.364 53.1646 202.592 51.6744C202.82 50.1843 202.731 48.6662 202.642 47.1615C202.642 46.8504 202.586 46.5419 202.475 46.2512C202.33 45.9743 202.13 45.7293 201.888 45.5309C201.122 44.8284 200.277 44.2156 199.371 43.7045C198.962 43.5212 198.601 43.2452 198.317 42.8984C198.145 42.6012 198.035 42.2732 197.991 41.9332L197.713 40.5177C197.663 40.1099 197.523 39.718 197.304 39.3704C196.813 38.7084 195.873 38.6184 195.049 38.5861L192.029 38.4677C191.09 38.4309 189.852 38.1619 188.935 38.3461C188.079 38.5182 188.363 39.3064 188.519 40.0241C188.745 40.8906 188.873 41.7793 188.903 42.6742Z" fill="#A0616A"/>
        <path opacity="0.1" d="M188.903 42.6742C188.745 44.078 187.673 45.2088 187.276 46.5646C186.678 48.6052 187.712 50.795 189.126 52.3843C190.267 53.6531 191.649 54.6831 193.191 55.4147C194.734 56.1462 196.406 56.5646 198.111 56.6458C198.612 56.6898 199.117 56.6348 199.597 56.4841C200.025 56.3119 200.411 56.0486 200.727 55.7125C201.792 54.6444 202.364 53.1646 202.592 51.6744C202.82 50.1843 202.731 48.6662 202.642 47.1615C202.642 46.8504 202.586 46.5419 202.475 46.2512C202.33 45.9743 202.13 45.7293 201.888 45.5309C201.122 44.8284 200.277 44.2156 199.371 43.7045C198.962 43.5212 198.601 43.2452 198.317 42.8984C198.145 42.6012 198.035 42.2732 197.991 41.9332L197.713 40.5177C197.663 40.1099 197.523 39.718 197.304 39.3704C196.813 38.7084 195.873 38.6184 195.049 38.5861L192.029 38.4677C191.09 38.4309 189.852 38.1619 188.935 38.3461C188.079 38.5182 188.363 39.3064 188.519 40.0241C188.745 40.8906 188.873 41.7793 188.903 42.6742Z" fill="black"/>
        <path d="M208.112 105.861C207.685 110.547 207.257 115.232 206.829 119.916C206.494 123.602 206.153 127.304 205.496 130.942C205.269 132.196 205.003 133.444 204.688 134.681C203.81 138.114 202.538 141.471 202.127 144.991C202.114 145.092 202.104 145.196 202.093 145.299C202.047 146.078 201.899 146.847 201.654 147.587C201.449 148.125 201.133 148.614 200.911 149.145C200.468 150.207 200.409 151.381 200.355 152.532C198.797 151.656 197.092 151.074 195.323 150.814C194.47 150.686 193.519 150.596 192.938 149.959C192.294 149.255 192.365 148.178 192.473 147.233C192.812 144.298 193.151 141.364 193.489 138.432C193.599 137.17 193.814 135.92 194.13 134.694C194.247 134.286 194.388 133.884 194.53 133.483C194.727 132.93 194.926 132.378 195.075 131.81C195.29 130.893 195.44 129.962 195.524 129.024C195.872 126.071 196.291 123.125 196.658 120.175L196.678 120.019C197.229 115.547 197.648 111.054 197.527 106.55C197.51 105.883 197.482 105.216 197.438 104.547C197.378 103.578 197.289 103.064 198.093 102.457C198.981 101.788 200.15 101.32 201.166 100.882C201.712 100.645 207.732 98.51 207.873 98.9783C208.155 99.9773 208.303 101.009 208.313 102.047C208.318 103.321 208.251 104.595 208.112 105.861Z" fill="#605D82"/>
        <path opacity="0.1" d="M205.496 130.942C205.269 132.196 205.004 133.444 204.688 134.68C203.811 138.114 202.538 141.47 202.128 144.991C202.115 145.092 202.104 145.196 202.093 145.299C199.41 141.47 197.15 137.352 194.531 133.483C194.727 132.93 194.926 132.378 195.075 131.81C195.29 130.893 195.44 129.962 195.525 129.024C195.873 126.071 196.292 123.125 196.659 120.175L196.679 120.019C196.832 120.646 197.052 121.254 197.333 121.834C199.092 125.404 203.271 127.209 205.315 130.625C205.378 130.731 205.438 130.837 205.496 130.942Z" fill="black"/>
        <path d="M183.72 99.5524C183.808 102.416 184.267 105.253 184.725 108.081L185.67 113.915C186.187 117.108 186.725 120.366 188.238 123.226C189.37 125.366 191 127.191 192.475 129.111C196.101 133.83 198.825 139.175 202.264 144.032C203.263 145.444 204.692 146.97 206.397 146.676C207.517 146.482 208.33 145.551 209.21 144.833C210.247 143.987 211.498 143.368 212.314 142.307C213.13 141.246 213.29 139.483 212.184 138.728C211.784 138.507 211.359 138.333 210.918 138.211C209.204 137.56 208.094 135.888 207.388 134.197C206.682 132.506 206.255 130.688 205.314 129.115C203.27 125.699 199.091 123.894 197.331 120.323C196.346 118.323 196.252 116.018 196.177 113.79L195.985 108.111C195.964 107.49 195.947 106.844 196.2 106.276C196.873 104.764 198.905 104.623 200.55 104.432C202.417 104.213 204.226 103.643 205.881 102.752C206.828 102.241 207.754 101.589 208.261 100.64C208.724 99.7741 208.787 98.7586 208.842 97.7787L209.411 87.4863C209.46 86.6008 209.505 85.6852 209.193 84.8551C208.408 82.7707 205.773 82.0896 203.546 82.189C199.401 82.3741 195.575 84.1549 191.668 85.3575C190.7 85.6624 189.717 85.9184 188.724 86.1245C187.847 86.3003 186.785 86.2274 185.949 86.5091C184.461 87.01 184.499 90.2593 184.288 91.6072C183.852 94.2323 183.662 96.8921 183.72 99.5524Z" fill="#605D82"/>
        <path d="M205.836 147.107C206.201 147.475 206.321 148.015 206.416 148.524C206.944 151.351 207.218 154.22 207.236 157.095C207.212 157.364 207.265 157.633 207.391 157.872C207.494 158.014 207.633 158.126 207.794 158.196C208.851 158.699 210.077 157.998 210.957 157.228C212.588 155.8 213.969 153.884 214.062 151.719C214.045 151.162 214.064 150.604 214.12 150.049C214.263 149.234 214.74 148.524 215.16 147.81C215.874 146.596 216.45 145.306 216.878 143.964C217.038 143.46 217.145 142.825 216.749 142.473C216.609 142.363 216.449 142.28 216.279 142.229L211.508 140.459C211.094 140.306 210.065 142.946 209.902 143.234C209.503 143.94 209.105 144.341 208.304 144.504C207.486 144.67 206.512 144.432 205.749 144.839C204.458 145.529 205.105 146.371 205.836 147.107Z" fill="black"/>
        <path d="M198.473 148.736C198.384 148.56 198.26 148.404 198.11 148.276C197.889 148.136 197.638 148.051 197.377 148.028C196.469 147.874 195.392 147.772 194.765 148.447C194.178 149.079 194.279 150.109 193.787 150.818C193.632 151.043 193.421 151.228 193.286 151.466C193.119 151.829 193.043 152.228 193.066 152.627C193.041 153.727 193.016 154.829 193.092 155.926C193.155 156.846 193.311 157.81 193.886 158.53C194.81 159.687 196.477 159.853 197.956 159.928L199.155 159.989C199.485 160.029 199.819 159.998 200.136 159.899C200.333 159.808 200.509 159.679 200.654 159.519C200.8 159.359 200.912 159.172 200.983 158.968C201.607 157.419 200.619 155.751 200.011 154.197C199.312 152.41 199.437 150.426 198.473 148.736Z" fill="black"/>
        <path d="M188.556 34.7642C188.541 34.6072 188.564 34.449 188.623 34.3027C188.799 33.9927 189.257 34.0771 189.603 34.1642C190.993 34.5143 192.458 34.1974 193.889 34.2791C195.321 34.3609 196.933 35.0757 197.221 36.4787C198.26 35.743 199.155 34.8238 199.863 33.7664C200.261 33.1726 200.607 32.4924 200.553 31.7802C200.475 30.753 199.612 29.9848 198.813 29.3334L196.432 27.3915C196.119 27.1045 195.758 26.8753 195.365 26.7143C194.816 26.5266 194.216 26.6161 193.635 26.6164C191.901 26.6175 190.053 25.8295 188.511 26.6211C187.867 26.9518 187.382 27.5185 186.915 28.071L184.79 30.5842C184.63 30.7444 184.513 30.9423 184.45 31.1597C184.389 31.4665 184.547 31.7692 184.602 32.077C184.702 32.6385 184.46 33.2377 184.646 33.7768C184.955 34.6719 186.043 34.7986 186.709 35.3118C186.957 35.503 187.345 36.1512 187.64 36.1433C188.173 36.129 188.542 35.1778 188.556 34.7642Z" fill="black"/>
        <path d="M192.162 42.1724C195.921 42.1724 198.969 39.1285 198.969 35.3738C198.969 31.619 195.921 28.5752 192.162 28.5752C188.403 28.5752 185.356 31.619 185.356 35.3738C185.356 39.1285 188.403 42.1724 192.162 42.1724Z" fill="#A0616A"/>
        <path d="M193.757 50.2526C193.526 49.5919 193.09 49.0219 192.513 48.6251C191.936 48.2284 191.247 48.0256 190.547 48.0462C190.347 48.0835 190.14 48.0573 189.955 47.9714C189.85 47.8912 189.767 47.787 189.711 47.6676C189.298 46.9242 188.965 46.1385 188.719 45.3241C188.61 44.9643 188.462 44.54 188.098 44.4465C187.947 44.4267 187.793 44.4483 187.654 44.509C187.514 44.5696 187.394 44.667 187.305 44.7907C187.132 45.0397 186.943 45.2772 186.739 45.5016C185.883 46.2661 184.366 45.5693 183.457 46.2707C183.309 46.3853 183.186 46.532 183.03 46.6362C182.874 46.7301 182.706 46.8021 182.531 46.8503C180.776 47.4224 179.056 48.0953 177.379 48.8655C177.984 52.5011 178.603 56.2 180.02 59.6028C180.694 61.2221 181.458 62.8081 181.998 64.4769C183.194 68.1746 183.247 72.1308 183.26 76.0167C183.269 78.6762 183.256 81.3925 182.395 83.9089C182.163 84.4651 182 85.0472 181.908 85.6427C181.856 86.2423 182.031 86.9035 182.517 87.2588C182.799 87.443 183.122 87.5562 183.457 87.5886C184.95 87.8073 186.455 87.4105 187.924 87.0705C191.864 86.1593 195.881 85.6379 199.891 85.1178L206.61 84.2464C207.092 84.2137 207.563 84.092 208 83.8875C209.23 83.215 209.346 81.3676 208.583 80.1934C208.217 79.6304 207.7 79.1686 207.393 78.5718C207.085 77.9749 207.059 77.1403 207.589 76.727C208.666 75.8861 208.344 74.326 208.396 72.9615C208.539 69.1462 208.52 65.3295 208.337 61.5112C208.283 60.7208 208.271 59.9281 208.299 59.1364C208.419 57.7949 208.667 56.4679 209.041 55.1737L211.082 47.1438C210.549 46.302 209.528 45.7678 208.56 45.5253C207.593 45.2828 206.585 45.2114 205.633 44.9165C203.681 44.3124 201.943 42.7793 199.905 42.9222C199.751 42.925 199.599 42.9619 199.461 43.0305C199.001 43.2906 199.074 43.9524 199.044 44.4793C198.979 45.6452 198.121 46.6196 197.173 47.3027C196.225 47.9859 195.142 48.484 194.272 49.2631C194.117 49.3793 193.991 49.5284 193.902 49.6996C193.813 49.8708 193.763 50.0598 193.757 50.2526Z" fill="url(#paint3_linear)"/>
        <path d="M166.787 57.8692C166.336 58.1617 165.856 58.4082 165.356 58.605C164.865 58.7507 164.402 58.9752 163.984 59.2698C163.792 59.4362 163.63 59.6355 163.507 59.8584C163.277 60.2665 163.161 60.7289 163.17 61.1973C163.18 61.6657 163.315 62.123 163.562 62.5214C163.809 62.9198 164.158 63.2448 164.573 63.4623C164.989 63.6798 165.455 63.7819 165.924 63.7579C166.546 63.6883 167.151 63.5081 167.71 63.2258L172.511 61.1479C173.324 60.7962 174.201 60.3841 174.585 59.587C174.63 59.5127 174.647 59.4248 174.632 59.3393C174.593 59.2489 174.523 59.1754 174.435 59.1322C173.352 58.4298 172.405 57.5379 171.64 56.4994C171.443 56.2323 171.202 55.6016 170.923 55.4414C169.907 54.8569 167.601 57.342 166.787 57.8692Z" fill="#A0616A"/>
        <path d="M218.108 56.1641L219.878 58.1836C220.258 58.6171 220.638 59.0512 220.985 59.512C221.835 60.6828 222.517 61.9667 223.012 63.3264C223.396 64.3348 223.716 65.4089 223.581 66.4796C223.492 67.0285 223.344 67.5662 223.139 68.0832C222.814 69.0776 222.412 70.045 221.936 70.9765C221.536 71.6842 221.083 72.3613 220.583 73.0023C219.212 74.8164 217.713 76.5295 216.096 78.1284C215.491 78.7267 215.237 79.6941 214.974 80.5028C214.488 81.9945 213.332 83.1563 212.214 84.258C211.855 84.637 211.458 84.9783 211.029 85.2766C210.387 85.6897 209.637 85.9032 208.873 85.8901C208.538 85.8924 208.207 85.8239 207.901 85.6892C207.136 85.3263 206.748 84.4427 206.668 83.6006C206.597 82.8363 206.725 82.0667 207.04 81.3667C208.056 79.1194 210.664 78.1456 212.507 76.5059C213.588 75.5444 214.415 74.3367 215.23 73.1421C215.784 72.3962 216.246 71.5867 216.607 70.731C217.019 69.6337 216.859 68.3347 217.218 67.2193C217.37 66.7478 217.641 66.3221 217.804 65.8545C217.968 65.3869 218.009 64.8317 217.723 64.4271C217.507 64.1699 217.232 63.9688 216.922 63.8411C215.744 63.244 214.425 62.4757 214.2 61.1759C214.11 60.455 214.298 59.7271 214.727 59.1403C215.154 58.5612 215.653 58.0388 216.212 57.5856C216.727 57.1307 217.593 56.619 218.108 56.1641Z" fill="#A0616A"/>
        <path d="M165.651 60.6883C165.339 60.0577 164.948 59.4144 164.318 59.1008C164.012 58.9682 163.682 58.8991 163.349 58.8977C163.016 58.8963 162.686 58.9627 162.379 59.0927C161.767 59.356 161.195 59.7018 160.678 60.1204L159.152 61.2437C158.806 61.4703 158.5 61.7525 158.247 62.0788C158.006 62.4746 157.846 62.9138 157.775 63.3715C157.509 64.4153 157.428 65.4975 157.535 66.5692C157.777 68.2875 158.814 69.7877 159.956 71.0958C160.669 71.9131 161.55 72.738 162.635 72.7728C163.103 72.7879 163.624 72.6035 163.819 72.1778C163.886 72.009 163.922 71.8293 163.924 71.6476C164.041 69.7309 163.355 67.8587 162.555 66.1128C162.3 65.6557 162.149 65.1478 162.113 64.6256C162.107 64.5377 162.13 64.4503 162.178 64.3765C162.247 64.3047 162.34 64.2597 162.439 64.2495C163.534 64.033 165.421 64.8832 166.19 63.6679C166.688 62.8801 166.005 61.4027 165.651 60.6883Z" fill="#A0616A"/>
        <path d="M188.199 32.625C188.185 32.468 188.208 32.3098 188.267 32.1636C188.442 31.8536 188.901 31.9379 189.246 32.025C190.637 32.3751 192.101 32.0582 193.533 32.14C194.964 32.2218 196.577 32.9366 196.864 34.3395C197.903 33.6038 198.799 32.6846 199.507 31.6272C199.904 31.0334 200.251 30.3532 200.197 29.6411C200.119 28.6139 199.256 27.8457 198.457 27.1942L196.075 25.2523C195.763 24.9654 195.402 24.7361 195.009 24.5752C194.459 24.3875 193.859 24.4769 193.278 24.4773C191.545 24.4784 189.697 23.6903 188.155 24.482C187.511 24.8126 187.026 25.3793 186.559 25.9319L184.433 28.445C184.273 28.6052 184.156 28.8032 184.093 29.0205C184.033 29.3273 184.191 29.6301 184.246 29.9378C184.346 30.4993 184.104 31.0985 184.29 31.6377C184.599 32.5328 185.687 32.6595 186.352 33.1726C186.6 33.3639 186.989 34.012 187.284 34.0041C187.817 33.9898 188.186 33.0386 188.199 32.625Z" fill="black"/>
        <path d="M173.743 51.2562C173.468 51.4333 173.227 51.6575 173.031 51.9187C172.781 52.2955 172.73 52.7713 172.516 53.1692C172.057 54.0206 170.984 54.3235 170.315 55.022C170.209 55.1181 170.135 55.2447 170.104 55.3845C170.1 55.574 170.164 55.7587 170.283 55.9061L173.511 60.9743C174.586 61.0688 175.616 60.3964 176.692 60.4856C177.093 60.519 177.504 60.6574 177.889 60.539C178.164 60.4169 178.422 60.2591 178.657 60.0697C179.298 59.6646 180.152 59.6174 180.691 59.0829C181.207 58.57 181.273 57.7675 181.267 57.0401C181.275 56.4084 181.211 55.7778 181.075 55.1609C180.6 53.2155 179.11 51.7226 178.176 49.9994C177.722 49.1604 177.474 48.6693 176.512 49.2453C175.545 49.8244 174.653 50.5913 173.743 51.2562Z" fill="url(#paint4_linear)"/>
        <path d="M212.941 48.6933C213.547 49.0867 214.094 49.5652 214.565 50.1139C215.056 50.7472 215.335 51.5222 215.807 52.17C216.265 52.798 216.888 53.2843 217.407 53.8625C218.195 54.7394 218.728 55.8092 219.252 56.8647C217.973 58.5314 216.578 60.1063 215.077 61.5778C214.91 61.7744 214.69 61.9189 214.443 61.994C214.275 62.0119 214.106 61.9878 213.949 61.9242C213.793 61.8605 213.655 61.7591 213.547 61.6291C213.315 61.3855 213.15 61.0852 212.928 60.8323C212.403 60.2918 211.704 59.9541 210.954 59.879C210.211 59.8072 209.464 59.797 208.719 59.8482C208.555 59.8664 208.39 59.8387 208.241 59.7681C208.131 59.6919 208.041 59.5893 207.981 59.4696C207.107 57.9843 207.388 56.1195 207.696 54.4245L208.404 50.535C208.506 49.7922 208.704 49.0657 208.993 48.3734C209.26 47.8014 209.86 46.8314 210.596 47.0026C211.339 47.1752 212.316 48.2444 212.941 48.6933Z" fill="url(#paint5_linear)"/>
        <path d="M83.4534 74.2322C89.3967 74.2322 94.2147 69.4109 94.2147 63.4635C94.2147 57.5161 89.3967 52.6948 83.4534 52.6948C77.5101 52.6948 72.6921 57.5161 72.6921 63.4635C72.6921 69.4109 77.5101 74.2322 83.4534 74.2322Z" fill="white"/>
        <path d="M83.4534 50.8596C80.9098 50.8596 78.4232 51.6131 76.3082 53.0247C74.1933 54.4362 72.5448 56.4426 71.5714 58.79C70.598 61.1374 70.3433 63.7204 70.8395 66.2124C71.3358 68.7044 72.5607 70.9934 74.3593 72.79C76.158 74.5867 78.4496 75.8102 80.9444 76.3059C83.4392 76.8015 86.0251 76.5471 88.3751 75.5748C90.7252 74.6025 92.7338 72.9559 94.147 70.8433C95.5602 68.7307 96.3145 66.247 96.3145 63.7062C96.3045 60.3021 94.9463 57.0403 92.5366 54.6333C90.1268 52.2263 86.8613 50.8696 83.4534 50.8596ZM80.8132 70.5556L74.2219 63.9717L76.0707 62.125L80.8194 66.8684L90.8424 56.8567L92.6911 58.7034L80.8132 70.5556L80.8132 70.5556Z" fill="#00B859"/>
    </g>
    <defs>
        <linearGradient id="paint0_linear" x1="126.105" y1="62.002" x2="126.105" y2="154.812" gradientUnits="userSpaceOnUse">
            <stop stop-color="#FFE38C"/>
            <stop offset="1" stop-color="#F1CD5F"/>
        </linearGradient>
        <linearGradient id="paint1_linear" x1="33.8175" y1="126.933" x2="33.8175" y2="155.213" gradientUnits="userSpaceOnUse">
            <stop stop-color="#FFE38C"/>
            <stop offset="1" stop-color="#F1CD5F"/>
        </linearGradient>
        <linearGradient id="paint2_linear" x1="14.7843" y1="128.648" x2="14.7843" y2="155.213" gradientUnits="userSpaceOnUse">
            <stop stop-color="#FFE38C"/>
            <stop offset="1" stop-color="#F1CD5F"/>
        </linearGradient>
        <linearGradient id="paint3_linear" x1="194.231" y1="42.9128" x2="194.231" y2="87.6513" gradientUnits="userSpaceOnUse">
            <stop stop-color="#FFE38C"/>
            <stop offset="1" stop-color="#F1CD5F"/>
        </linearGradient>
        <linearGradient id="paint4_linear" x1="175.685" y1="48.9956" x2="175.685" y2="60.9835" gradientUnits="userSpaceOnUse">
            <stop stop-color="#FFE38C"/>
            <stop offset="1" stop-color="#F1CD5F"/>
        </linearGradient>
        <linearGradient id="paint5_linear" x1="213.324" y1="46.9827" x2="213.324" y2="61.9998" gradientUnits="userSpaceOnUse">
            <stop stop-color="#FFE38C"/>
            <stop offset="1" stop-color="#F1CD5F"/>
        </linearGradient>
        <clipPath id="clip0">
            <rect width="266" height="160" fill="white"/>
        </clipPath>
    </defs>
</svg>
