<svg width="242" height="160" viewBox="0 0 242 160" fill="none" xmlns="http://www.w3.org/2000/svg">
    <g clip-path="url(#clip0)">
        <path d="M232.541 107.076C230.793 108.981 228.626 110.4 226.274 111.502H226.272C226.05 111.606 225.829 111.708 225.605 111.805H225.602L225.599 111.808L225.596 111.805H225.594C225.594 111.805 225.594 111.805 225.593 111.806C225.593 111.806 225.593 111.806 225.593 111.807C225.593 111.807 225.592 111.807 225.592 111.807C225.591 111.808 225.591 111.808 225.591 111.808H225.588L225.585 111.805C225.582 111.808 225.582 111.808 225.579 111.805L225.577 111.808L225.574 111.805H225.571C225.568 111.808 225.568 111.808 225.565 111.805H225.562C223.988 112.484 222.372 113.061 220.723 113.532C211.027 116.278 200.837 116.81 190.907 115.087C190.717 115.053 190.53 115.019 190.34 114.985V92.0157C190.527 91.9364 190.717 91.8571 190.907 91.7806C192.147 91.2681 193.401 90.797 194.671 90.3675C196.498 89.7445 198.35 89.2103 200.228 88.7647C206.355 87.2844 212.676 86.7741 218.961 87.2525C220.105 87.3374 221.245 87.4602 222.382 87.6206C224.762 87.952 227.259 88.5297 229.454 89.5321H229.457C229.778 89.6822 230.093 89.838 230.405 90.0051C232.356 91.0614 234.001 92.5141 235.006 94.5049C235.366 95.2199 235.626 95.9814 235.777 96.7676V96.7732C235.834 97.0451 235.874 97.3198 235.905 97.5916C236.262 100.945 234.869 104.533 232.541 107.076Z" fill="#F2F2F2"/>
        <path d="M235.905 97.5914C235.877 97.5984 235.848 97.6022 235.82 97.6028C230.961 97.8151 226.108 98.1304 221.262 98.5486H221.253C221.234 98.5514 221.217 98.5514 221.197 98.5543C216.221 98.9847 211.256 99.5237 206.301 100.171C206.092 100.2 205.884 100.228 205.677 100.253C202.251 100.709 198.831 101.215 195.417 101.771C193.911 102.018 192.407 102.274 190.907 102.542C190.717 102.575 190.53 102.607 190.34 102.643V101.785C190.53 101.749 190.72 101.717 190.907 101.683C195.905 100.8 200.92 100.029 205.953 99.3698C207.218 99.1999 208.485 99.0395 209.754 98.8884C213.419 98.4467 217.089 98.0653 220.766 97.7444C221.035 97.7217 221.302 97.699 221.571 97.6764C226.277 97.2771 230.99 96.9741 235.709 96.7674C235.732 96.7663 235.755 96.7682 235.777 96.773C236.231 96.8127 236.328 97.4923 235.905 97.5914Z" fill="#919191"/>
        <path d="M225.814 110.97C219.76 111.015 213.797 108.452 209.515 104.211C208.307 103.009 207.242 101.672 206.342 100.226C206.054 99.7642 205.378 100.274 205.665 100.732C208.99 106.056 214.529 109.849 220.636 111.243C222.37 111.635 224.144 111.825 225.922 111.808C226.465 111.804 226.353 110.966 225.814 110.97V110.97Z" fill="#919191"/>
        <path d="M200.228 88.7646C200.202 88.8443 200.156 88.9157 200.094 88.9718C200.031 89.028 199.956 89.0669 199.874 89.0846C198.486 89.4475 197.146 89.9702 195.88 90.6422C194.03 91.6172 192.351 92.8843 190.907 94.3944C190.83 94.4708 190.757 94.5473 190.686 94.6266C190.566 94.7512 190.453 94.8786 190.34 95.0089V93.7742C190.521 93.5816 190.711 93.3919 190.907 93.2107C192.047 92.1207 193.31 91.1666 194.671 90.3675C196.498 89.7445 198.35 89.2102 200.228 88.7646Z" fill="#919191"/>
        <path d="M229.956 89.3089C226.105 90.9611 222.883 93.797 220.759 97.4039C220.716 97.5071 220.715 97.6231 220.758 97.7267C220.8 97.8303 220.881 97.9131 220.984 97.9572C221.087 97.9981 221.203 97.9976 221.306 97.9558C221.409 97.914 221.492 97.8341 221.538 97.7328C223.566 94.3261 226.625 91.6504 230.274 90.0914C230.775 89.8778 230.458 89.0949 229.956 89.3089L229.956 89.3089Z" fill="#919191"/>
        <path d="M241.564 65.2573C240.906 67.755 239.644 70.0177 238.075 72.0821L238.072 72.0849C237.927 72.2775 237.777 72.4729 237.621 72.6598V72.6626C236.532 74.0021 235.356 75.2688 234.101 76.4545C229.589 80.7472 224.492 84.3824 218.961 87.2524C210.261 91.789 200.537 94.4708 190.907 94.6237C190.833 94.6266 190.759 94.6265 190.686 94.6265C190.569 94.6294 190.453 94.6294 190.34 94.6294V81.7586C190.524 81.4074 190.714 81.0563 190.907 80.708C193.41 76.2123 196.462 72.044 199.993 68.2988C200.078 68.2053 200.166 68.1119 200.254 68.0212C201.581 66.6223 202.973 65.2904 204.429 64.0255C210.031 59.1083 216.505 55.2808 223.517 52.7405C225.778 51.9306 228.257 51.2821 230.668 51.1547C231.023 51.1349 231.375 51.1264 231.729 51.1292C233.95 51.1603 236.081 51.6842 237.899 52.9812C238.55 53.4481 239.134 54.0017 239.635 54.6265C239.811 54.8446 239.973 55.0683 240.129 55.2977V55.3005C242.007 58.1041 242.443 61.9242 241.564 65.2573Z" fill="#F2F2F2"/>
        <path d="M240.129 55.2976V55.3004C240.108 55.3187 240.085 55.3348 240.061 55.3486C235.862 57.7868 231.717 60.3137 227.625 62.9294C227.619 62.9323 227.616 62.9351 227.611 62.9379C227.594 62.9493 227.577 62.9597 227.559 62.9691C223.353 65.6593 219.205 68.4402 215.118 71.3117C214.948 71.4307 214.775 71.5525 214.602 71.6742C211.779 73.665 208.986 75.6983 206.222 77.774C201.003 81.699 195.898 85.7693 190.907 89.985C190.717 90.1436 190.53 90.305 190.34 90.4664V89.3648C190.527 89.2034 190.717 89.042 190.907 88.8834C192.819 87.2721 194.748 85.6834 196.694 84.1174C197.275 83.6502 197.86 83.1829 198.444 82.7213C203.635 78.5953 208.942 74.6231 214.366 70.8048H214.369C215.436 70.0544 216.504 69.3106 217.574 68.5733C220.615 66.4834 223.69 64.4435 226.799 62.4537C227.023 62.3093 227.25 62.1648 227.477 62.0204C231.457 59.4831 235.489 57.0288 239.573 54.6576C239.593 54.6455 239.614 54.6351 239.635 54.6264C240.061 54.4565 240.461 55.0172 240.129 55.2976Z" fill="#919191"/>
        <path d="M237.419 71.8254C232.079 74.6719 225.606 75.1683 219.84 73.3979C218.211 72.8942 216.646 72.2039 215.177 71.3406C214.706 71.0653 214.345 71.8296 214.812 72.1026C220.234 75.2753 226.904 76.0652 232.961 74.4681C234.679 74.0113 236.338 73.3564 237.905 72.5167C238.384 72.2614 237.895 71.5719 237.419 71.8254V71.8254Z" fill="#919191"/>
        <path d="M197.465 82.1867C197.201 80.7043 197.11 79.1961 197.195 77.6928C197.386 74.2641 198.438 70.9385 200.253 68.0218C201.582 66.6233 202.975 65.2912 204.43 64.0254C204.444 64.1082 204.436 64.1931 204.406 64.2718C204.377 64.3505 204.328 64.4203 204.264 64.4742C203.205 65.439 202.261 66.5231 201.452 67.7047C198.562 71.9157 197.434 77.0872 198.308 82.1166C198.323 82.1737 198.322 82.2334 198.306 82.2901C198.291 82.3467 198.261 82.3984 198.219 82.4403C198.159 82.493 198.085 82.529 198.006 82.5446C197.927 82.5603 197.846 82.555 197.77 82.5294C197.693 82.5037 197.625 82.4586 197.572 82.3985C197.518 82.3384 197.482 82.2654 197.465 82.1867Z" fill="#919191"/>
        <path d="M231.008 50.7222C228.367 53.9711 226.833 57.9766 226.63 62.1558C226.64 62.2672 226.694 62.3701 226.779 62.4423C226.865 62.5145 226.975 62.5502 227.087 62.5415C227.198 62.5297 227.3 62.4757 227.372 62.3909C227.443 62.306 227.48 62.1967 227.473 62.0857C227.684 58.1287 229.148 54.3406 231.654 51.2677C231.998 50.8464 231.353 50.3001 231.008 50.7222Z" fill="#919191"/>
        <path d="M201.632 60.0269V60.0297C201.613 60.2733 201.59 60.5139 201.564 60.7547V60.7603C201.367 62.4737 201.059 64.1726 200.642 65.8463C200.444 66.6676 200.228 67.4831 199.993 68.2987C199.964 68.4035 199.933 68.5083 199.902 68.6102V68.6131C199.209 70.9851 198.381 73.3157 197.423 75.5936C195.659 79.7875 193.476 83.7931 190.907 87.5497C190.723 87.8244 190.533 88.0991 190.34 88.3709V44.024C190.53 44.0127 190.717 44.0127 190.907 44.0184C190.998 44.0184 191.088 44.0212 191.179 44.0269C191.98 44.0689 192.77 44.2223 193.528 44.4828C193.795 44.5706 194.053 44.6697 194.308 44.7801C197.403 46.1338 199.834 49.1186 200.889 52.4007C201.681 54.8587 201.839 57.4442 201.632 60.0269Z" fill="#F2F2F2"/>
        <path d="M194.308 44.7802C194.302 44.808 194.291 44.8347 194.277 44.8595C193.128 47.0882 192.005 49.3282 190.907 51.5795C190.717 51.9675 190.527 52.3583 190.34 52.7463V50.8206C190.527 50.4355 190.716 50.0503 190.907 49.6652C191.755 47.9491 192.618 46.2405 193.494 44.5395C193.504 44.5197 193.515 44.5007 193.528 44.4829C193.789 44.1091 194.436 44.364 194.308 44.7802Z" fill="#919191"/>
        <path d="M201.723 60.4828C201.672 60.5734 201.621 60.664 201.564 60.7546C200.731 62.2037 199.74 63.5562 198.608 64.7872C196.435 67.141 193.818 69.0435 190.907 70.3858C190.72 70.4764 190.53 70.5613 190.34 70.6406V69.7203C190.53 69.6353 190.72 69.5475 190.907 69.4569C195.121 67.4504 198.621 64.2079 200.94 60.1628C200.974 60.105 201.019 60.0551 201.074 60.0164C201.128 59.9777 201.19 59.9512 201.256 59.9386C201.322 59.926 201.389 59.9276 201.454 59.9433C201.519 59.959 201.58 59.9885 201.632 60.0297C201.668 60.0535 201.699 60.084 201.723 60.1197C201.747 60.1553 201.763 60.1954 201.772 60.2374C201.78 60.2795 201.78 60.3228 201.772 60.3649C201.764 60.407 201.747 60.4471 201.723 60.4828Z" fill="#919191"/>
        <path d="M190.907 9.34513V30.8673H190.34V30.6379H0.567335V30.8673H3.8147e-06V9.34513C0.00244004 6.8674 0.989462 4.49184 2.74446 2.73981C4.49945 0.987786 6.87903 0.00243211 9.36097 0H181.546C184.028 0.00243211 186.407 0.987786 188.162 2.73981C189.917 4.49184 190.904 6.8674 190.907 9.34513Z" fill="url(#paint0_linear)"/>
        <path d="M181.546 0H9.36097C6.87903 0.00243211 4.49945 0.987786 2.74446 2.73981C0.989462 4.49184 0.00244004 6.8674 3.8147e-06 9.34513V132.248C0.00244004 134.726 0.989462 137.101 2.74446 138.853C4.49945 140.605 6.87903 141.59 9.36097 141.593H181.546C184.028 141.59 186.407 140.605 188.162 138.853C189.917 137.101 190.904 134.726 190.907 132.248V9.34513C190.904 6.8674 189.917 4.49184 188.162 2.73981C186.407 0.987786 184.028 0.00243211 181.546 0ZM190.34 132.248C190.337 134.575 189.409 136.806 187.761 138.452C186.112 140.098 183.877 141.024 181.546 141.027H9.36097C7.02966 141.024 4.79469 140.098 3.14621 138.452C1.49773 136.806 0.570309 134.575 0.567335 132.248V9.34513C0.570309 7.01777 1.49773 4.78659 3.14621 3.14089C4.79469 1.4952 7.02966 0.569341 9.36097 0.566372H181.546C183.877 0.569342 186.112 1.4952 187.761 3.14089C189.409 4.78659 190.337 7.01777 190.34 9.34513V132.248Z" fill="#5D5C5C"/>
        <path d="M38.5785 21.0975C41.7118 21.0975 44.2518 18.5617 44.2518 15.4337C44.2518 12.3058 41.7118 9.77002 38.5785 9.77002C35.4452 9.77002 32.9052 12.3058 32.9052 15.4337C32.9052 18.5617 35.4452 21.0975 38.5785 21.0975Z" fill="white"/>
        <path d="M152.328 21.0975C155.462 21.0975 158.002 18.5617 158.002 15.4337C158.002 12.3058 155.462 9.77002 152.328 9.77002C149.195 9.77002 146.655 12.3058 146.655 15.4337C146.655 18.5617 149.195 21.0975 152.328 21.0975Z" fill="white"/>
        <path d="M54.9701 78.5847H21.2206C19.7908 78.583 18.4201 78.0153 17.4091 77.006C16.3981 75.9967 15.8294 74.6283 15.8277 73.2009V57.2766C15.8294 55.8492 16.3981 54.4808 17.4091 53.4715C18.4201 52.4622 19.7908 51.8944 21.2206 51.8928H54.9701C56.3999 51.8944 57.7706 52.4622 58.7817 53.4715C59.7927 54.4808 60.3614 55.8492 60.363 57.2766V73.2009C60.3614 74.6283 59.7927 75.9967 58.7817 77.006C57.7706 78.0153 56.3999 78.583 54.9701 78.5847Z" fill="url(#paint1_linear)"/>
        <path d="M112.384 78.5847H78.6343C77.2045 78.583 75.8337 78.0153 74.8227 77.006C73.8117 75.9967 73.243 74.6283 73.2414 73.2009V57.2766C73.243 55.8492 73.8117 54.4808 74.8227 53.4715C75.8337 52.4622 77.2045 51.8944 78.6343 51.8928H112.384C113.814 51.8944 115.184 52.4622 116.195 53.4715C117.206 54.4808 117.775 55.8492 117.777 57.2766V73.2009C117.775 74.6283 117.206 75.9967 116.195 77.006C115.184 78.0153 113.814 78.583 112.384 78.5847Z" fill="url(#paint2_linear)"/>
        <path d="M112.384 119.729H78.6342C77.161 119.727 75.7487 119.142 74.7071 118.102C73.6654 117.063 73.0795 115.653 73.0778 114.182V98.2576C73.0795 96.787 73.6654 95.3771 74.7071 94.3372C75.7487 93.2973 77.161 92.7123 78.6342 92.7107H112.384C113.857 92.7123 115.269 93.2973 116.311 94.3372C117.352 95.3771 117.938 96.787 117.94 98.2576V114.182C117.938 115.653 117.352 117.063 116.311 118.102C115.269 119.142 113.857 119.727 112.384 119.729Z" fill="#F2F2F2"/>
        <path d="M54.8591 119.729H21.1097C19.6365 119.727 18.2242 119.142 17.1826 118.102C16.1409 117.063 15.555 115.653 15.5534 114.182V98.2576C15.555 96.787 16.1409 95.3771 17.1826 94.3372C18.2242 93.2973 19.6365 92.7124 21.1097 92.7107H54.8591C56.3322 92.7123 57.7445 93.2973 58.7862 94.3372C59.8278 95.3771 60.4138 96.787 60.4154 98.2576V114.182C60.4138 115.653 59.8278 117.063 58.7862 118.102C57.7445 119.142 56.3322 119.727 54.8591 119.729Z" fill="#F2F2F2"/>
        <path d="M169.797 119.729H136.048C134.575 119.727 133.162 119.142 132.121 118.102C131.079 117.063 130.493 115.653 130.492 114.182V98.2576C130.493 96.787 131.079 95.3771 132.121 94.3372C133.162 93.2973 134.575 92.7123 136.048 92.7107H169.797C171.27 92.7123 172.683 93.2973 173.724 94.3372C174.766 95.3771 175.352 96.787 175.354 98.2576V114.182C175.352 115.653 174.766 117.063 173.724 118.102C172.683 119.142 171.27 119.727 169.797 119.729Z" fill="#F2F2F2"/>
        <path d="M169.797 78.6167H136.048C134.575 78.615 133.162 78.0301 132.121 76.9902C131.079 75.9503 130.493 74.5404 130.492 73.0698V57.1453C130.493 55.6747 131.079 54.2648 132.121 53.2249C133.162 52.185 134.575 51.6 136.048 51.5984H169.797C171.27 51.6 172.683 52.185 173.724 53.2249C174.766 54.2648 175.352 55.6747 175.354 57.1453V73.0698C175.352 74.5404 174.766 75.9503 173.724 76.9902C172.683 78.0301 171.27 78.615 169.797 78.6167Z" fill="#F2F2F2"/>
        <path d="M38.095 74.3747C43.1493 74.3747 47.2466 70.2844 47.2466 65.2386C47.2466 60.1929 43.1493 56.1025 38.095 56.1025C33.0407 56.1025 28.9434 60.1929 28.9434 65.2386C28.9434 70.2844 33.0407 74.3747 38.095 74.3747Z" fill="white"/>
        <path d="M37.1881 68.7239C36.9822 68.7243 36.7817 68.6579 36.617 68.5346L36.6068 68.5269L34.4561 66.8831C34.3563 66.8069 34.2726 66.7119 34.2097 66.6035C34.1467 66.495 34.1058 66.3752 34.0893 66.251C34.0727 66.1267 34.0809 66.0004 34.1133 65.8793C34.1457 65.7582 34.2016 65.6447 34.278 65.5452C34.3544 65.4457 34.4496 65.3622 34.5583 65.2994C34.667 65.2367 34.7871 65.196 34.9115 65.1796C35.036 65.1632 35.1625 65.1715 35.2838 65.2039C35.4051 65.2364 35.5188 65.2924 35.6183 65.3687L37.0114 66.4351L40.3034 62.1491C40.3797 62.0497 40.475 61.9663 40.5836 61.9036C40.6922 61.8409 40.8122 61.8002 40.9366 61.7838C41.061 61.7674 41.1874 61.7757 41.3086 61.8081C41.4298 61.8404 41.5435 61.8963 41.643 61.9726L41.6226 62.0003L41.6436 61.973C41.8444 62.1271 41.9758 62.3544 42.009 62.6052C42.0422 62.8559 41.9743 63.1095 41.8204 63.3104L37.9482 68.3517C37.8587 68.4679 37.7435 68.5619 37.6117 68.6264C37.4799 68.691 37.3349 68.7244 37.1881 68.7239Z" fill="url(#paint3_linear)"/>
        <path d="M95.672 74.2436C100.726 74.2436 104.824 70.1532 104.824 65.1075C104.824 60.0618 100.726 55.9714 95.672 55.9714C90.6177 55.9714 86.5204 60.0618 86.5204 65.1075C86.5204 70.1532 90.6177 74.2436 95.672 74.2436Z" fill="white"/>
        <path d="M94.7653 68.5926C94.5594 68.593 94.359 68.5265 94.1943 68.4032L94.1841 68.3956L92.0334 66.7517C91.8322 66.5979 91.7005 66.3705 91.6673 66.1197C91.634 65.8689 91.7019 65.6152 91.856 65.4144C92.0102 65.2136 92.2379 65.0821 92.4891 65.0489C92.7403 65.0157 92.9945 65.0835 93.1956 65.2374L94.5887 66.3037L97.8807 62.0178C97.957 61.9183 98.0523 61.8349 98.1609 61.7723C98.2695 61.7096 98.3895 61.6689 98.5139 61.6525C98.6383 61.6361 98.7647 61.6443 98.8859 61.6767C99.0071 61.7091 99.1208 61.765 99.2203 61.8412L99.1999 61.869L99.2209 61.8416C99.4217 61.9957 99.5531 62.2231 99.5863 62.4738C99.6194 62.7245 99.5516 62.9781 99.3977 63.179L95.5255 68.2204C95.436 68.3365 95.3208 68.4305 95.189 68.4951C95.0571 68.5596 94.9122 68.593 94.7653 68.5926Z" fill="url(#paint4_linear)"/>
        <path d="M157.523 108.219C157.823 107.891 158.048 107.501 158.182 107.077C158.315 106.653 158.353 106.204 158.294 105.763C158.235 105.323 158.08 104.9 157.84 104.525C157.6 104.151 157.28 103.834 156.904 103.596L151.794 76.3611L145.581 78.6613L152.557 104.709C152.199 105.367 152.094 106.133 152.264 106.862C152.434 107.592 152.866 108.233 153.478 108.666C154.09 109.099 154.84 109.292 155.585 109.21C156.331 109.128 157.02 108.775 157.523 108.219Z" fill="#A0616A"/>
        <path d="M107.943 66.6621C107.958 66.8313 107.96 67.0013 107.949 67.1708L120.03 76.4535L123.456 75.049L126.255 79.9337L120.432 83.0085C119.962 83.2569 119.423 83.3462 118.898 83.2631C118.372 83.18 117.888 82.929 117.517 82.5476L105.441 70.1188C104.802 70.2627 104.134 70.2089 103.526 69.9646C102.918 69.7203 102.399 69.297 102.038 68.7511C101.677 68.2052 101.491 67.5624 101.505 66.9084C101.519 66.2544 101.732 65.62 102.115 65.0898C102.499 64.5595 103.036 64.1584 103.653 63.9399C104.271 63.7214 104.941 63.6958 105.573 63.8665C106.206 64.0372 106.771 64.3961 107.195 64.8955C107.618 65.3949 107.879 66.0111 107.943 66.6621H107.943Z" fill="#A0616A"/>
        <path d="M136.168 156.559H132.69L131.036 146L136.168 146L136.168 156.559Z" fill="#A0616A"/>
        <path d="M137.055 159.924L125.841 159.924V159.782C125.841 159.21 125.954 158.644 126.173 158.115C126.393 157.586 126.714 157.106 127.119 156.701C127.525 156.297 128.006 155.976 128.535 155.757C129.065 155.538 129.633 155.425 130.206 155.425H130.206L137.055 155.426L137.055 159.924Z" fill="#2F2E41"/>
        <path d="M149.216 156.559H145.739L144.084 146L149.217 146L149.216 156.559Z" fill="#A0616A"/>
        <path d="M150.103 159.924L138.89 159.924V159.782C138.89 159.21 139.003 158.644 139.222 158.115C139.441 157.586 139.763 157.106 140.168 156.701C140.573 156.297 141.055 155.976 141.584 155.757C142.114 155.538 142.681 155.425 143.254 155.425H143.255L150.103 155.426L150.103 159.924Z" fill="#2F2E41"/>
        <path d="M131.968 154.472C131.65 154.472 131.344 154.354 131.109 154.141C130.875 153.927 130.728 153.634 130.698 153.319L127.668 112.628L127.811 112.616L148.666 110.905L148.672 111.053L150.33 153.205C150.336 153.377 150.308 153.547 150.247 153.707C150.186 153.868 150.093 154.014 149.974 154.137C149.855 154.26 149.712 154.359 149.554 154.426C149.396 154.493 149.226 154.527 149.054 154.527H144.965C144.66 154.529 144.364 154.42 144.133 154.222C143.901 154.023 143.748 153.748 143.703 153.447L138.15 119.395C138.145 119.36 138.126 119.328 138.099 119.306C138.071 119.284 138.035 119.273 138 119.275C137.964 119.278 137.931 119.294 137.907 119.32C137.882 119.346 137.869 119.38 137.868 119.416L137.617 153.036C137.614 153.361 137.487 153.673 137.263 153.907C137.038 154.142 136.732 154.283 136.407 154.3L132.036 154.47C132.013 154.471 131.99 154.472 131.968 154.472Z" fill="#2F2E41"/>
        <path d="M135.527 61.2036C139.375 61.2036 142.494 58.0896 142.494 54.2483C142.494 50.407 139.375 47.293 135.527 47.293C131.68 47.293 128.56 50.407 128.56 54.2483C128.56 58.0896 131.68 61.2036 135.527 61.2036Z" fill="#A0616A"/>
        <path d="M136.876 115.223C133.831 115.214 130.801 114.801 127.865 113.994C127.582 113.912 127.337 113.735 127.169 113.493C127.002 113.251 126.924 112.959 126.947 112.666C127.885 98.594 128.105 87.6734 126.133 80.1174C125.292 76.8969 125.674 73.5052 127.18 70.8119C129.446 66.7587 133.612 64.2917 138.056 64.3769C138.268 64.3809 138.483 64.3885 138.699 64.3996C145.443 64.7462 150.697 70.8365 150.413 77.976L149.056 112.006C149.052 112.254 148.973 112.496 148.831 112.699C148.689 112.903 148.489 113.06 148.258 113.151C144.619 114.518 140.764 115.22 136.876 115.223Z" fill="#00B859"/>
        <path d="M127.279 82.7301L122.061 76.3458C121.912 76.1642 121.805 75.9527 121.745 75.7258C121.686 75.4989 121.676 75.262 121.717 75.0311C121.758 74.8002 121.848 74.5808 121.982 74.3878C122.115 74.1948 122.288 74.0328 122.49 73.9127L129.559 69.7074C130.495 68.9541 131.691 68.6017 132.886 68.7277C134.081 68.8536 135.177 69.4476 135.935 70.3793C136.692 71.311 137.048 72.5044 136.925 73.6978C136.802 74.8911 136.209 75.9871 135.278 76.7453L129.753 82.7979C129.595 82.9711 129.401 83.1083 129.185 83.2C128.969 83.2917 128.735 83.3359 128.501 83.3295C128.266 83.323 128.035 83.2662 127.825 83.1627C127.614 83.0593 127.428 82.9118 127.279 82.7301Z" fill="#00B859"/>
        <path d="M143.697 81.9291C143.482 81.8333 143.291 81.6925 143.136 81.5163C142.981 81.3401 142.866 81.1325 142.799 80.9079L140.45 73.0622C139.94 71.9757 139.882 70.7317 140.29 69.603C140.697 68.4743 141.537 67.553 142.624 67.0411C143.711 66.5293 144.956 66.4688 146.088 66.8728C147.22 67.2768 148.145 68.1123 148.66 69.1962L153.203 76.046C153.333 76.2415 153.419 76.4626 153.455 76.6943C153.492 76.9259 153.478 77.1626 153.414 77.3883C153.35 77.614 153.239 77.8234 153.087 78.0022C152.935 78.181 152.746 78.325 152.534 78.4244L145.058 81.9178C144.845 82.0173 144.613 82.0699 144.378 82.0718C144.144 82.0737 143.911 82.0251 143.697 81.9291Z" fill="#00B859"/>
        <path d="M138.97 59.9552L133.806 58.7752C133.273 58.6535 132.633 58.4212 132.559 57.8807C132.46 57.1543 133.507 56.6482 133.411 55.9215C133.317 55.2175 132.363 55.1268 131.683 54.919C131.05 54.6972 130.527 54.238 130.227 53.6386C129.927 53.0392 129.872 52.3467 130.074 51.7076C129.338 52.7429 127.657 52.8316 126.702 51.9928C125.748 51.154 125.565 49.6321 126.138 48.4989C126.447 47.9423 126.884 47.4665 127.413 47.1102C127.942 46.7539 128.547 46.5272 129.18 46.4485C130.452 46.3045 131.739 46.5439 132.874 47.136C132.95 46.3337 133.953 46.0084 134.76 46.0012C136.437 46.0207 138.066 46.5616 139.421 47.5486C140.776 48.5357 141.788 49.9197 142.318 51.5081C143.309 54.6946 142.646 58.1875 139.875 60.0518L138.97 59.9552Z" fill="#2F2E41"/>
        <path d="M190.989 160H82.9121C82.8368 160 82.7647 159.97 82.7115 159.917C82.6583 159.864 82.6284 159.792 82.6284 159.717C82.6284 159.642 82.6583 159.57 82.7115 159.517C82.7647 159.463 82.8368 159.434 82.9121 159.434H190.989C191.064 159.434 191.136 159.463 191.189 159.517C191.242 159.57 191.272 159.642 191.272 159.717C191.272 159.792 191.242 159.864 191.189 159.917C191.136 159.97 191.064 160 190.989 160Z" fill="#4B4B4B"/>
    </g>
    <defs>
        <linearGradient id="paint0_linear" x1="95.4534" y1="0" x2="95.4534" y2="30.8673" gradientUnits="userSpaceOnUse">
            <stop stop-color="#FFE38C"/>
            <stop offset="1" stop-color="#F1CD5F"/>
        </linearGradient>
        <linearGradient id="paint1_linear" x1="38.0954" y1="51.8928" x2="38.0954" y2="78.5847" gradientUnits="userSpaceOnUse">
            <stop stop-color="#FFE38C"/>
            <stop offset="1" stop-color="#F1CD5F"/>
        </linearGradient>
        <linearGradient id="paint2_linear" x1="95.509" y1="51.8928" x2="95.509" y2="78.5847" gradientUnits="userSpaceOnUse">
            <stop stop-color="#FFE38C"/>
            <stop offset="1" stop-color="#F1CD5F"/>
        </linearGradient>
        <linearGradient id="paint3_linear" x1="38.0491" y1="61.7756" x2="38.0491" y2="68.7239" gradientUnits="userSpaceOnUse">
            <stop stop-color="#FFE38C"/>
            <stop offset="1" stop-color="#F1CD5F"/>
        </linearGradient>
        <linearGradient id="paint4_linear" x1="95.6268" y1="61.6443" x2="95.6268" y2="68.5926" gradientUnits="userSpaceOnUse">
            <stop stop-color="#FFE38C"/>
            <stop offset="1" stop-color="#F1CD5F"/>
        </linearGradient>
        <clipPath id="clip0">
            <rect width="242" height="160" fill="white"/>
        </clipPath>
    </defs>
</svg>
