<svg width="236" height="160" viewBox="0 0 236 160" fill="none" xmlns="http://www.w3.org/2000/svg">
    <g clip-path="url(#clip0)">
        <path d="M0 66.0242C0 46.4496 15.8269 0 35.3504 0C54.8738 0 70.7007 46.4496 70.7007 66.0242C70.6981 75.4225 66.9725 84.435 60.3433 91.0796C53.7141 97.7243 44.7241 101.457 35.3504 101.457C25.9766 101.457 16.9867 97.7243 10.3575 91.0796C3.72828 84.435 0.00268795 75.4225 0 66.0242Z" fill="#06E775"/>
        <path d="M35.3509 152.253C35.2737 152.253 35.1997 152.222 35.1451 152.168C35.0906 152.113 35.0599 152.039 35.0599 151.962V29.7658C35.0599 29.6885 35.0906 29.6144 35.1451 29.5597C35.1997 29.5051 35.2737 29.4744 35.3509 29.4744C35.428 29.4744 35.502 29.5051 35.5566 29.5597C35.6111 29.6144 35.6418 29.6885 35.6418 29.7658V151.962C35.6418 152.039 35.6111 152.113 35.5566 152.168C35.502 152.222 35.428 152.253 35.3509 152.253Z" fill="#919191"/>
        <path d="M35.3505 53.3564C35.3123 53.3564 35.2745 53.3489 35.2392 53.3343C35.2039 53.3196 35.1719 53.2981 35.1449 53.271L21.1533 39.2428C21.126 39.2158 21.1043 39.1837 21.0895 39.1482C21.0746 39.1128 21.0669 39.0747 21.0668 39.0363C21.0666 38.9979 21.0741 38.9598 21.0887 38.9242C21.1033 38.8887 21.1248 38.8564 21.1519 38.8292C21.179 38.8021 21.2113 38.7805 21.2467 38.7659C21.2821 38.7512 21.3201 38.7438 21.3585 38.7439C21.3968 38.744 21.4347 38.7518 21.4701 38.7667C21.5054 38.7816 21.5375 38.8033 21.5644 38.8307L35.556 52.8589C35.5967 52.8997 35.6244 52.9516 35.6356 53.0081C35.6468 53.0646 35.641 53.1232 35.619 53.1765C35.597 53.2297 35.5598 53.2752 35.512 53.3073C35.4642 53.3393 35.408 53.3564 35.3505 53.3564V53.3564Z" fill="#919191"/>
        <path d="M35.3507 77.6421C35.2932 77.6421 35.237 77.625 35.1892 77.593C35.1414 77.561 35.1042 77.5155 35.0822 77.4622C35.0602 77.409 35.0544 77.3504 35.0656 77.2939C35.0768 77.2373 35.1045 77.1854 35.1452 77.1446L58.5767 53.6516C58.6036 53.6243 58.6357 53.6025 58.671 53.5877C58.7063 53.5728 58.7443 53.5651 58.7826 53.5649C58.8209 53.5648 58.8589 53.5723 58.8943 53.5869C58.9298 53.6016 58.962 53.6231 58.9891 53.6503C59.0162 53.6775 59.0376 53.7097 59.0522 53.7453C59.0669 53.7808 59.0743 53.8189 59.0742 53.8573C59.0741 53.8957 59.0664 53.9337 59.0516 53.9692C59.0367 54.0046 59.015 54.0367 58.9878 54.0637L35.5563 77.5568C35.5293 77.5839 35.4973 77.6054 35.462 77.62C35.4267 77.6347 35.3889 77.6422 35.3507 77.6421Z" fill="#919191"/>
        <path d="M14.3211 159.887C14.3716 159.926 14.4248 159.962 14.4758 160H57.8138C58.663 156.55 58.9629 153.097 57.6945 150.098C55.8873 145.825 50.5385 143.157 46.2862 144.992C45.2788 145.439 44.4011 146.135 43.736 147.015C42.0742 144.033 39.0933 141.784 35.6526 141.787C31.3419 141.79 27.7578 145.324 26.5883 149.407C24.7048 146.22 20.9846 143.992 17.3484 144.95C11.2665 146.553 9.34547 156.032 14.3211 159.887Z" fill="#F2F2F2"/>
        <path d="M185.162 92.471C185.162 78.4051 196.542 45.0273 210.581 45.0273C224.62 45.0273 236 78.4051 236 92.471C235.996 99.2273 233.316 105.705 228.549 110.481C223.783 115.257 217.32 117.94 210.581 117.94C203.842 117.94 197.38 115.257 192.613 110.481C187.847 105.705 185.166 99.2273 185.162 92.471Z" fill="#E6E6E6"/>
        <path d="M210.581 154.433C210.554 154.433 210.526 154.428 210.501 154.417C210.476 154.407 210.453 154.391 210.433 154.372C210.414 154.352 210.398 154.329 210.388 154.304C210.377 154.278 210.372 154.251 210.372 154.224V66.4163C210.372 66.3609 210.394 66.3078 210.433 66.2686C210.473 66.2295 210.526 66.2075 210.581 66.2075C210.636 66.2075 210.69 66.2295 210.729 66.2686C210.768 66.3078 210.79 66.3609 210.79 66.4163V154.224C210.79 154.251 210.785 154.278 210.774 154.304C210.764 154.329 210.748 154.352 210.729 154.372C210.71 154.391 210.687 154.407 210.661 154.417C210.636 154.428 210.609 154.433 210.581 154.433Z" fill="#919191"/>
        <path d="M210.581 83.3682C210.553 83.3682 210.526 83.3628 210.501 83.3523C210.475 83.3418 210.452 83.3263 210.433 83.3068L200.372 73.2265C200.333 73.1872 200.311 73.1339 200.311 73.0783C200.311 73.0227 200.333 72.9695 200.372 72.9302C200.411 72.8909 200.464 72.8689 200.52 72.8689C200.575 72.8689 200.628 72.891 200.668 72.9303L210.728 83.0107C210.758 83.04 210.778 83.0773 210.786 83.118C210.794 83.1586 210.789 83.2007 210.774 83.239C210.758 83.2772 210.731 83.3099 210.697 83.3329C210.662 83.3559 210.622 83.3682 210.581 83.3682Z" fill="#919191"/>
        <path d="M210.581 100.819C210.54 100.819 210.499 100.807 210.465 100.784C210.431 100.761 210.404 100.728 210.388 100.69C210.372 100.652 210.368 100.61 210.376 100.569C210.384 100.528 210.404 100.491 210.433 100.462L227.282 83.5802C227.321 83.5409 227.374 83.5188 227.43 83.5188C227.485 83.5188 227.538 83.5408 227.577 83.5801C227.617 83.6194 227.639 83.6726 227.639 83.7282C227.639 83.7838 227.617 83.8371 227.578 83.8764L210.729 100.758C210.709 100.777 210.686 100.793 210.661 100.803C210.636 100.814 210.608 100.819 210.581 100.819Z" fill="#919191"/>
        <path d="M195.459 159.919C195.496 159.947 195.534 159.973 195.571 160H226.733C227.344 157.521 227.56 155.04 226.648 152.885C225.348 149.814 221.502 147.897 218.444 149.216C217.72 149.537 217.089 150.037 216.611 150.67C215.416 148.527 213.272 146.911 210.798 146.913C207.698 146.915 205.121 149.455 204.28 152.388C202.926 150.098 200.251 148.497 197.636 149.186C193.263 150.337 191.882 157.149 195.459 159.919Z" fill="#F2F2F2"/>
        <path d="M122.813 100.747C124.958 105.002 122.717 110.996 118.032 112.342C116.715 112.721 115.222 112.681 114.062 111.883C113.104 111.224 112.413 110.06 112.504 108.874C112.679 106.592 115.577 105.744 117.422 106.481C119.92 107.478 121.039 110.417 121.389 112.884C121.816 115.9 121.229 119.016 120.054 121.803C117.701 127.382 113.043 131.728 108.425 135.459C103.687 139.282 98.4952 142.5 92.9673 145.042C92.2731 145.361 91.574 145.67 90.8701 145.967C90.7708 146.026 90.6988 146.122 90.6695 146.234C90.6402 146.346 90.6561 146.465 90.7137 146.565C90.774 146.663 90.8696 146.734 90.9807 146.763C91.0917 146.793 91.2097 146.778 91.3102 146.722C97.3906 144.142 103.102 140.762 108.295 136.673C113.321 132.719 118.393 128.051 120.9 122.023C122.15 119.018 122.712 115.699 122.201 112.465C121.771 109.742 120.421 106.729 117.696 105.654C115.546 104.805 112.55 105.7 111.787 108.041C111.367 109.327 111.801 110.719 112.633 111.737C113.087 112.274 113.653 112.705 114.291 113C114.928 113.296 115.622 113.449 116.325 113.449C119.128 113.507 121.693 111.704 123.101 109.363C124.427 107.166 124.831 104.53 124.224 102.035C124.067 101.437 123.846 100.857 123.566 100.306C123.313 99.8037 122.56 100.246 122.813 100.747Z" fill="#CCCCCC"/>
        <path d="M171.099 153.677L167.965 154.786L162.208 143.196L166.833 141.559L171.099 153.677Z" fill="#A0616A"/>
        <path d="M165.412 154.681L171.455 152.542L172.798 156.357L162.95 159.843C162.773 159.342 162.697 158.811 162.725 158.28C162.754 157.75 162.886 157.23 163.114 156.751C163.343 156.271 163.664 155.842 164.058 155.487C164.452 155.132 164.912 154.858 165.412 154.681Z" fill="#919191"/>
        <path d="M137.073 156.745L133.75 156.745L132.169 143.894L137.074 143.894L137.073 156.745Z" fill="#A0616A"/>
        <path d="M131.376 155.793H137.784V159.839H127.34C127.34 159.308 127.445 158.782 127.648 158.291C127.85 157.8 128.148 157.354 128.522 156.978C128.897 156.602 129.342 156.304 129.831 156.101C130.321 155.898 130.846 155.793 131.376 155.793Z" fill="#919191"/>
        <path d="M136.765 152.972C136.656 152.972 136.546 152.958 136.44 152.931L131.539 151.685C131.24 151.61 130.977 151.43 130.798 151.179C130.618 150.928 130.532 150.622 130.556 150.314L135.24 89.0381L135.384 89.0492L135.24 89.0381C135.339 87.7671 135.896 86.5756 136.806 85.6853C137.716 84.7949 138.918 84.2662 140.188 84.1975L154.999 83.4268L157.49 121.881L172.261 148.553C172.353 148.719 172.408 148.904 172.422 149.093C172.436 149.283 172.408 149.473 172.342 149.651C172.275 149.829 172.17 149.991 172.035 150.124C171.9 150.258 171.738 150.36 171.559 150.424L164.755 152.872C164.448 152.985 164.109 152.977 163.807 152.85C163.505 152.723 163.262 152.486 163.126 152.187L145.756 114.471C145.717 114.387 145.652 114.317 145.571 114.272C145.49 114.227 145.397 114.209 145.305 114.22C145.214 114.232 145.128 114.273 145.06 114.336C144.993 114.4 144.948 114.483 144.931 114.575L138.048 151.898C137.992 152.199 137.833 152.47 137.599 152.666C137.365 152.862 137.07 152.97 136.765 152.972Z" fill="#2F2E41"/>
        <path d="M120.513 98.5634C120.671 98.1965 120.907 97.8687 121.204 97.6031C121.502 97.3375 121.854 97.1406 122.236 97.0262C122.618 96.9119 123.02 96.8828 123.414 96.9411C123.808 96.9994 124.185 97.1437 124.517 97.3638L129.678 93.8674L132.563 96.4937L125.205 101.329C124.799 101.864 124.212 102.232 123.554 102.362C122.895 102.493 122.212 102.376 121.634 102.036C121.056 101.695 120.622 101.153 120.415 100.513C120.209 99.8731 120.244 99.1794 120.513 98.5634L120.513 98.5634Z" fill="#A0616A"/>
        <path d="M148.57 60.0824C152.513 60.0824 155.709 56.8777 155.709 52.9244C155.709 48.9711 152.513 45.7664 148.57 45.7664C144.627 45.7664 141.431 48.9711 141.431 52.9244C141.431 56.8777 144.627 60.0824 148.57 60.0824Z" fill="#A0616A"/>
        <path d="M138.855 85.8146C138.458 85.8137 138.065 85.7252 137.705 85.5552C137.345 85.3851 137.027 85.1378 136.773 84.8308C136.52 84.5237 136.336 84.1644 136.237 83.7783C136.137 83.3923 136.123 82.9889 136.196 82.5969L137.442 75.9187C136.112 71.0764 142.887 66.8073 143.177 66.6274L147.404 65.0021L147.456 65.1382L147.404 65.0021C148.199 64.6972 149.056 64.5942 149.9 64.7024C150.744 64.8106 151.548 65.1266 152.24 65.6222C152.932 66.1178 153.491 66.7776 153.867 67.5426C154.243 68.3077 154.425 69.1542 154.395 70.0066L153.883 84.6925L139.063 85.8067C138.994 85.812 138.924 85.8146 138.855 85.8146Z" fill="#919191"/>
        <path d="M145.041 131.607C141.786 131.568 138.537 131.308 135.317 130.827L135.181 130.806L135.195 130.669C135.451 128.16 141.487 69.1873 142.794 65.0303C143.131 63.956 144.181 63.1117 145.914 62.521C151.361 60.6647 157.479 63.4175 159.842 68.7887C160.711 70.7705 161.139 72.9181 161.096 75.0824L159.997 126.998L159.882 127.02C159.851 127.026 156.809 127.622 152.791 130.225C151.157 131.284 148.125 131.607 145.041 131.607Z" fill="#F1CD5F"/>
        <path opacity="0.05098" d="M153.19 75.1088C156.967 81.5371 155.061 84.9601 151.489 91.5199C149.507 95.1584 143.393 99.6584 140.529 96.7658C137.665 93.8733 139.929 89.9408 141.172 85.9469C142.416 81.953 145.091 78.6645 147.883 75.6935C149.874 73.5754 153.985 75.3143 153.19 75.1088Z" fill="#919191"/>
        <path d="M128.633 100.261C128.345 100.261 128.065 100.165 127.837 99.9892C127.608 99.8133 127.444 99.5668 127.37 99.2878L126.463 95.8896C126.395 95.6319 126.407 95.3596 126.497 95.1087C126.586 94.8577 126.75 94.64 126.966 94.4842L141.641 83.9568L143.619 72.6946C143.752 71.9336 144.042 71.2089 144.471 70.5665C144.899 69.9241 145.456 69.3782 146.106 68.9634C146.756 68.5487 147.485 68.2742 148.247 68.1574C149.009 68.0407 149.787 68.0842 150.531 68.2853C151.275 68.4863 151.969 68.8405 152.569 69.3253C153.169 69.8101 153.662 70.4148 154.016 71.101C154.371 71.7872 154.579 72.5398 154.627 73.3109C154.675 74.0821 154.563 74.8549 154.297 75.5801L150.117 86.9821C149.301 89.2217 147.651 91.0573 145.514 92.104L129.209 100.126C129.03 100.215 128.833 100.261 128.633 100.261Z" fill="#F1CD5F"/>
        <path d="M145.555 50.2069C145.212 50.909 144.625 51.4612 143.904 51.7594C143.183 52.0577 142.378 52.0814 141.641 51.8261C140.904 51.5708 140.285 51.0541 139.901 50.3733C139.518 49.6926 139.396 48.8947 139.558 48.1299C139.861 46.7022 140.592 45.4017 141.654 44.403C142.716 43.4043 144.057 42.7553 145.497 42.5432C146.937 42.3311 148.408 42.566 149.711 43.2163C151.015 43.8667 152.088 44.9014 152.788 46.1814C155.047 44.5973 158.594 45.3974 159.959 47.7992C161.324 50.2009 160.202 53.6679 157.691 54.809C156.441 55.3768 156.534 57.5693 157.827 58.0287C158.259 58.1821 158.632 58.4663 158.896 58.8421C159.159 59.2178 159.299 59.6664 159.297 60.1256C159.294 60.5849 159.149 61.0319 158.882 61.4048C158.614 61.7777 158.238 62.0579 157.805 62.2066C156.178 62.7649 154.519 63.3291 152.8 63.3727C151.081 63.4163 149.26 62.8586 148.175 61.5208C147.089 60.1831 147.014 57.9874 148.294 56.8359C148.943 56.2234 149.376 55.4155 149.526 54.5344C149.675 53.6534 149.535 52.7474 149.125 51.9537C148.271 50.3916 145.986 49.3252 145.555 50.2069Z" fill="#2F2E41"/>
        <path d="M99.4469 158.447C99.1145 158.446 98.788 158.358 98.5006 158.191C98.2131 158.023 97.9748 157.783 97.8098 157.493C97.6447 157.204 97.5587 156.876 97.5605 156.543C97.5622 156.21 97.6517 155.883 97.8198 155.595V155.595L100.464 151.069L103.725 152.983L101.08 157.51C100.913 157.796 100.675 158.032 100.388 158.197C100.102 158.361 99.777 158.447 99.4469 158.447Z" fill="#F1CD5F"/>
        <path d="M109.823 148.101C111.108 148.101 112.149 147.057 112.149 145.77C112.149 144.482 111.108 143.438 109.823 143.438C108.539 143.438 107.498 144.482 107.498 145.77C107.498 147.057 108.539 148.101 109.823 148.101Z" fill="#F1CD5F"/>
        <path d="M89.2147 158.447C88.8822 158.446 88.5558 158.358 88.2683 158.191C87.9809 158.023 87.7425 157.783 87.5775 157.493C87.4124 157.204 87.3264 156.876 87.3282 156.543C87.3299 156.21 87.4194 155.883 87.5875 155.595L90.2319 151.069L93.4925 152.983L90.8482 157.51C90.6811 157.796 90.4424 158.032 90.1558 158.197C89.8693 158.361 89.5448 158.447 89.2147 158.447Z" fill="#F1CD5F"/>
        <path d="M104.44 155.421H92.7226C91.1281 155.419 89.5993 154.783 88.4718 153.653C87.3443 152.522 86.71 150.99 86.7083 149.391V147.606C86.7089 147.051 86.9291 146.519 87.3207 146.126C87.7122 145.734 88.2431 145.513 88.7969 145.512H104.44C105.75 145.512 107.007 146.034 107.934 146.963C108.86 147.892 109.381 149.153 109.381 150.467C109.381 151.781 108.86 153.041 107.934 153.97C107.007 154.899 105.75 155.421 104.44 155.421Z" fill="#919191"/>
        <path d="M103.885 159.988C103.384 159.988 102.904 159.788 102.55 159.433C102.195 159.078 101.996 158.596 101.996 158.094V152.848H105.774V158.094C105.774 158.596 105.575 159.078 105.22 159.433C104.866 159.788 104.386 159.988 103.885 159.988Z" fill="#919191"/>
        <path d="M92.9194 159.988C92.4185 159.988 91.9383 159.788 91.584 159.433C91.2298 159.078 91.0306 158.596 91.03 158.094V152.848H94.8088V158.094C94.8083 158.596 94.609 159.078 94.2548 159.433C93.9006 159.788 93.4204 159.988 92.9194 159.988Z" fill="#919191"/>
        <path d="M90.3039 138.41H85.6531V132.29C85.6531 131.672 85.8981 131.079 86.3342 130.642C86.7703 130.204 87.3618 129.959 87.9785 129.959C88.5952 129.959 89.1867 130.204 89.6228 130.642C90.0589 131.079 90.3039 131.672 90.3039 132.29V138.41Z" fill="#F1CD5F"/>
        <path d="M89.9349 147.081H82.2428C81.7982 147.081 81.372 146.903 81.0576 146.588C80.7433 146.273 80.5664 145.846 80.5659 145.4V141.361C80.5675 139.941 81.1306 138.58 82.1317 137.577C83.1328 136.573 84.4901 136.008 85.9058 136.007H87.133C88.3204 136.008 89.4588 136.481 90.2984 137.323C91.138 138.165 91.6103 139.306 91.6117 140.497V145.4C91.6111 145.846 91.4343 146.273 91.12 146.588C90.8056 146.903 90.3794 147.081 89.9349 147.081Z" fill="#919191"/>
        <path d="M90.3036 138.41H87.1062V131.562C87.1062 131.137 87.2746 130.729 87.5745 130.428C87.8743 130.128 88.2809 129.959 88.7049 129.959C89.1289 129.959 89.5356 130.128 89.8354 130.428C90.1352 130.729 90.3036 131.137 90.3036 131.562V138.41Z" fill="#919191"/>
        <path d="M89.507 147.031H81.0774C80.4606 147.031 79.8692 146.785 79.4331 146.348C78.997 145.911 78.752 145.318 78.752 144.699C78.752 144.081 78.997 143.488 79.4331 143.051C79.8692 142.614 80.4606 142.368 81.0774 142.368H89.507V147.031Z" fill="#919191"/>
        <path d="M78.9698 145.641C79.271 145.641 79.5152 145.201 79.5152 144.657C79.5152 144.114 79.271 143.674 78.9698 143.674C78.6685 143.674 78.4243 144.114 78.4243 144.657C78.4243 145.201 78.6685 145.641 78.9698 145.641Z" fill="#F1CD5F"/>
        <path d="M183.242 160H72.4943C72.4172 160 72.3433 159.969 72.2888 159.915C72.2342 159.86 72.2036 159.786 72.2036 159.709C72.2036 159.631 72.2342 159.557 72.2888 159.503C72.3433 159.448 72.4172 159.417 72.4943 159.417H183.242C183.319 159.417 183.393 159.448 183.448 159.503C183.502 159.557 183.533 159.631 183.533 159.709C183.533 159.786 183.502 159.86 183.448 159.915C183.393 159.969 183.319 160 183.242 160Z" fill="#5D5C5C"/>
    </g>
    <defs>
        <clipPath id="clip0">
            <rect width="236" height="160" fill="white"/>
        </clipPath>
    </defs>
</svg>
