<svg width="232" height="160" viewBox="0 0 232 160" fill="none" xmlns="http://www.w3.org/2000/svg">
    <g clip-path="url(#clip0)">
        <path d="M31.8383 159.085C22.6126 156.676 14.4603 151.231 8.68807 143.621C2.91588 136.011 -0.141864 126.678 0.00499234 117.117C0.0415824 114.735 0.291282 112.303 1.28962 110.142C2.28796 107.98 4.14237 106.11 6.46201 105.598C8.99357 105.039 11.6649 106.182 13.5515 107.965C15.4381 109.748 16.6751 112.1 17.8133 114.436C24.6684 128.506 29.8767 143.604 31.8267 159.141L31.8383 159.085Z" fill="#F2F2F2"/>
        <path d="M5.3135 106.067L10.1179 117.016L14.9224 127.965C16.4439 131.433 17.9626 134.902 19.5353 138.347C21.0942 141.761 22.7066 145.152 24.4266 148.488C26.1442 151.819 27.9697 155.096 29.9511 158.277C30.1979 158.673 30.4471 159.068 30.6987 159.461C30.8728 159.733 31.3081 159.481 31.1327 159.207C29.1132 156.049 27.2524 152.792 25.5071 149.475C23.76 146.154 22.127 142.774 20.5544 139.367C18.9733 135.941 17.4531 132.488 15.9369 129.034C14.3409 125.397 12.7452 121.761 11.1498 118.125L6.34538 107.176L5.74749 105.813C5.61747 105.517 5.18424 105.773 5.31346 106.067L5.3135 106.067Z" fill="white"/>
        <path d="M29.8341 159.161C24.3961 160.408 18.6979 159.789 13.6529 157.401C8.60787 155.013 4.50828 150.995 2.01127 145.992C1.38913 144.745 0.864185 143.415 0.800685 142.022C0.737185 140.63 1.19674 139.157 2.2632 138.263C3.42708 137.287 5.12156 137.157 6.58095 137.572C8.04035 137.987 9.31575 138.873 10.5354 139.778C17.8814 145.227 24.649 151.654 29.8434 159.193L29.8341 159.161Z" fill="#F2F2F2"/>
        <path d="M1.79304 138.817L7.23438 143.201L12.6757 147.585C14.399 148.973 16.1212 150.363 17.8648 151.725C19.5932 153.076 21.3429 154.4 23.1338 155.666C24.9222 156.93 26.7519 158.137 28.6369 159.252C28.8716 159.391 29.1072 159.529 29.3436 159.665C29.5073 159.759 29.6653 159.51 29.5005 159.415C27.6021 158.323 25.7594 157.135 23.9604 155.886C22.1595 154.635 20.402 153.322 18.6684 151.979C16.9256 150.629 15.2069 149.247 13.49 147.864C11.6826 146.409 9.87545 144.953 8.06838 143.497L2.62703 139.113L1.94989 138.568C1.80264 138.449 1.64669 138.699 1.79304 138.817V138.817Z" fill="white"/>
        <path d="M229.899 0H83.7188C83.1617 0.000619975 82.6276 0.222859 82.2337 0.617953C81.8398 1.01305 81.6182 1.54873 81.6176 2.10748V101.46C81.6182 102.019 81.8398 102.554 82.2337 102.95C82.6276 103.345 83.1617 103.567 83.7188 103.567H229.899C230.456 103.567 230.99 103.345 231.384 102.95C231.778 102.554 231.999 102.019 232 101.46V2.10748C231.999 1.54873 231.778 1.01305 231.384 0.617953C230.99 0.222859 230.456 0.000619975 229.899 0ZM231.4 101.46C231.4 101.859 231.241 102.242 230.96 102.524C230.679 102.807 230.297 102.965 229.899 102.965H83.7188C83.3208 102.965 82.9391 102.807 82.6577 102.524C82.3763 102.242 82.2181 101.859 82.2179 101.46V2.10748C82.2181 1.70829 82.3763 1.32549 82.6577 1.04322C82.9391 0.760947 83.3208 0.602296 83.7188 0.602136H229.899C230.297 0.602296 230.679 0.760947 230.96 1.04322C231.241 1.32549 231.4 1.70829 231.4 2.10748V101.46Z" fill="#5D5C5C"/>
        <path d="M231.7 8.44189H81.9177V9.04403H231.7V8.44189Z" fill="#E5E5E5"/>
        <path d="M87.0207 6.32254C88.0154 6.32254 88.8217 5.51378 88.8217 4.51613C88.8217 3.51847 88.0154 2.70972 87.0207 2.70972C86.0261 2.70972 85.2197 3.51847 85.2197 4.51613C85.2197 5.51378 86.0261 6.32254 87.0207 6.32254Z" fill="#E5E5E5"/>
        <path d="M92.1985 6.32254C93.1932 6.32254 93.9995 5.51378 93.9995 4.51613C93.9995 3.51847 93.1932 2.70972 92.1985 2.70972C91.2038 2.70972 90.3975 3.51847 90.3975 4.51613C90.3975 5.51378 91.2038 6.32254 92.1985 6.32254Z" fill="#E5E5E5"/>
        <path d="M97.3765 6.32254C98.3711 6.32254 99.1775 5.51378 99.1775 4.51613C99.1775 3.51847 98.3711 2.70972 97.3765 2.70972C96.3818 2.70972 95.5755 3.51847 95.5755 4.51613C95.5755 5.51378 96.3818 6.32254 97.3765 6.32254Z" fill="#E5E5E5"/>
        <path d="M118.498 22.4296H93.2843C92.7271 22.4296 92.1926 22.2075 91.7986 21.8123C91.4045 21.4171 91.1832 20.881 91.1832 20.3221C91.1832 19.7631 91.4045 19.2271 91.7986 18.8319C92.1926 18.4366 92.7271 18.2146 93.2843 18.2146H118.498C119.055 18.2146 119.59 18.4366 119.984 18.8319C120.378 19.2271 120.599 19.7631 120.599 20.3221C120.599 20.881 120.378 21.4171 119.984 21.8123C119.59 22.2075 119.055 22.4296 118.498 22.4296Z" fill="#CCCCCC"/>
        <path d="M153.017 32.6659H93.2843C92.7271 32.6659 92.1926 32.4438 91.7986 32.0486C91.4045 31.6534 91.1832 31.1173 91.1832 30.5584C91.1832 29.9995 91.4045 29.4634 91.7986 29.0682C92.1926 28.673 92.7271 28.4509 93.2843 28.4509H153.017C153.574 28.4509 154.109 28.673 154.503 29.0682C154.897 29.4634 155.118 29.9995 155.118 30.5584C155.118 31.1173 154.897 31.6534 154.503 32.0486C154.109 32.4438 153.574 32.6659 153.017 32.6659Z" fill="#CCCCCC"/>
        <path d="M172.294 36.7373C169.48 40.8521 167.84 45.6595 167.55 50.6406C167.261 55.6218 168.333 60.5877 170.652 65.0024C172.97 69.4171 176.446 73.1131 180.705 75.6913C184.964 78.2696 189.844 79.6324 194.819 79.6326V55.7157L172.294 36.7373Z" fill="#00B859"/>
        <path d="M194.819 24.8381C190.383 24.8353 186.013 25.9175 182.088 27.9909C178.163 30.0644 174.801 33.0665 172.294 36.7373L194.819 55.7157V24.8381Z" fill="#CCCCCC"/>
        <path d="M194.819 79.9337H194.519V24.5371H194.819C202.143 24.5371 209.167 27.4553 214.346 32.6497C219.525 37.8442 222.435 44.8893 222.435 52.2354C222.435 59.5814 219.525 66.6266 214.346 71.821C209.167 77.0155 202.143 79.9337 194.819 79.9337ZM195.12 25.1409V79.3299C202.232 79.2506 209.026 76.3611 214.028 71.2885C219.029 66.2159 221.834 59.3696 221.834 52.2354C221.834 45.1012 219.029 38.2549 214.028 33.1823C209.026 28.1097 202.232 25.2202 195.12 25.1409Z" fill="#E5E5E5"/>
        <path d="M110.694 91.2237H105.591C105.233 91.2233 104.89 91.0804 104.637 90.8264C104.383 90.5724 104.241 90.2281 104.241 89.8689V75.1165C104.241 74.7573 104.383 74.413 104.637 74.159C104.89 73.905 105.233 73.7621 105.591 73.7617H110.694C111.052 73.7621 111.396 73.905 111.649 74.159C111.902 74.413 112.044 74.7573 112.045 75.1165V89.8689C112.044 90.2281 111.902 90.5724 111.649 90.8264C111.396 91.0804 111.052 91.2233 110.694 91.2237Z" fill="#CCCCCC"/>
        <path d="M125.702 91.2237H120.599C120.241 91.2233 119.898 91.0804 119.645 90.8264C119.392 90.5724 119.249 90.2281 119.249 89.8689V68.192C119.249 67.8328 119.392 67.4884 119.645 67.2344C119.898 66.9804 120.241 66.8376 120.599 66.8372H125.702C126.06 66.8376 126.404 66.9804 126.657 67.2344C126.91 67.4884 127.053 67.8328 127.053 68.192V89.8689C127.053 90.2281 126.91 90.5724 126.657 90.8264C126.404 91.0804 126.06 91.2233 125.702 91.2237Z" fill="#00B859"/>
        <path d="M140.71 91.2238H135.608C135.25 91.2234 134.906 91.0805 134.653 90.8265C134.4 90.5726 134.257 90.2282 134.257 89.869V62.1707C134.257 61.8115 134.4 61.4672 134.653 61.2132C134.906 60.9592 135.25 60.8163 135.608 60.8159H140.71C141.069 60.8163 141.412 60.9592 141.665 61.2132C141.918 61.4672 142.061 61.8115 142.061 62.1707V89.869C142.061 90.2282 141.918 90.5726 141.665 90.8265C141.412 91.0805 141.069 91.2234 140.71 91.2238Z" fill="#00B859"/>
        <path d="M110.694 91.3743H105.591C105.193 91.3738 104.812 91.2151 104.53 90.9329C104.249 90.6507 104.091 90.2681 104.09 89.869V56.7514C104.091 56.3523 104.249 55.9697 104.53 55.6875C104.812 55.4053 105.193 55.2466 105.591 55.2461H110.694C111.092 55.2466 111.473 55.4053 111.755 55.6875C112.036 55.9697 112.194 56.3523 112.195 56.7514V89.869C112.194 90.2681 112.036 90.6507 111.755 90.9329C111.473 91.2151 111.092 91.3738 110.694 91.3743ZM105.591 55.8482C105.352 55.8485 105.124 55.9437 104.955 56.1131C104.786 56.2824 104.691 56.512 104.691 56.7514V89.869C104.691 90.1084 104.786 90.338 104.955 90.5073C105.124 90.6767 105.352 90.7719 105.591 90.7722H110.694C110.933 90.7719 111.162 90.6767 111.33 90.5073C111.499 90.338 111.594 90.1084 111.594 89.869V56.7514C111.594 56.512 111.499 56.2824 111.33 56.1131C111.162 55.9437 110.933 55.8485 110.694 55.8482H105.591Z" fill="#E5E5E5"/>
        <path d="M125.702 91.3743H120.6C120.202 91.3738 119.82 91.2151 119.539 90.9329C119.257 90.6507 119.099 90.2681 119.099 89.869V56.7514C119.099 56.3523 119.257 55.9697 119.539 55.6875C119.82 55.4053 120.202 55.2466 120.6 55.2461H125.702C126.1 55.2466 126.482 55.4053 126.763 55.6875C127.044 55.9697 127.203 56.3523 127.203 56.7514V89.869C127.203 90.2681 127.044 90.6507 126.763 90.9329C126.482 91.2151 126.1 91.3738 125.702 91.3743ZM120.6 55.8482C120.361 55.8485 120.132 55.9437 119.963 56.1131C119.794 56.2824 119.699 56.512 119.699 56.7514V89.869C119.699 90.1084 119.794 90.338 119.963 90.5073C120.132 90.6767 120.361 90.7719 120.6 90.7722H125.702C125.941 90.7719 126.17 90.6767 126.339 90.5073C126.508 90.338 126.603 90.1084 126.603 89.869V56.7514C126.603 56.512 126.508 56.2824 126.339 56.1131C126.17 55.9437 125.941 55.8485 125.702 55.8482H120.6Z" fill="#E5E5E5"/>
        <path d="M140.71 91.3743H135.608C135.21 91.3738 134.828 91.2151 134.547 90.9329C134.266 90.6507 134.107 90.2681 134.107 89.869V56.7514C134.107 56.3523 134.266 55.9697 134.547 55.6875C134.828 55.4053 135.21 55.2466 135.608 55.2461H140.71C141.108 55.2466 141.49 55.4053 141.771 55.6875C142.053 55.9697 142.211 56.3523 142.211 56.7514V89.869C142.211 90.2681 142.053 90.6507 141.771 90.9329C141.49 91.2151 141.108 91.3738 140.71 91.3743ZM135.608 55.8482C135.369 55.8485 135.14 55.9437 134.971 56.1131C134.802 56.2824 134.707 56.512 134.707 56.7514V89.869C134.707 90.1084 134.802 90.338 134.971 90.5073C135.14 90.6767 135.369 90.7719 135.608 90.7722H140.71C140.949 90.7719 141.178 90.6767 141.347 90.5073C141.516 90.338 141.611 90.1084 141.611 89.869V56.7514C141.611 56.512 141.516 56.2824 141.347 56.1131C141.178 55.9437 140.949 55.8485 140.71 55.8482H135.608Z" fill="#E5E5E5"/>
        <path d="M33.7479 108.084C33.8645 107.657 33.8864 107.21 33.812 106.774C33.7377 106.338 33.5688 105.923 33.3174 105.559C33.066 105.195 32.7382 104.891 32.357 104.669C31.9757 104.446 31.5504 104.309 31.111 104.269L28.5296 93.8267L24.7516 97.9372L27.7821 107.223C27.7637 107.968 28.0184 108.694 28.4979 109.263C28.9774 109.833 29.6484 110.206 30.3837 110.312C31.1191 110.418 31.8677 110.25 32.4878 109.839C33.1078 109.429 33.5561 108.804 33.7479 108.084H33.7479Z" fill="#FFB8B8"/>
        <path d="M26.8272 104.873C26.6521 104.799 26.4943 104.69 26.3641 104.551C26.234 104.413 26.1343 104.249 26.0716 104.069L21.7624 90.7682C20.649 87.5735 20.7304 84.0818 21.9916 80.9428L26.1454 70.5996C26.2388 70.0338 26.4425 69.4919 26.7448 69.0051C27.0471 68.5183 27.4421 68.0959 27.9072 67.7623C28.3724 67.4287 28.8985 67.1903 29.4556 67.0608C30.0126 66.9312 30.5897 66.9131 31.1537 67.0074C31.7178 67.1017 32.2578 67.3066 32.7428 67.6103C33.2279 67.9141 33.6485 68.3107 33.9806 68.7776C34.3127 69.2446 34.5498 69.7725 34.6783 70.3314C34.8069 70.8903 34.8243 71.4691 34.7297 72.0347L28.9988 88.7614L31.0048 102.381C31.0315 102.658 30.9727 102.937 30.8363 103.18C30.6999 103.422 30.4926 103.617 30.2424 103.737L27.9285 104.845C27.6803 104.963 27.4019 105.003 27.1305 104.959C27.0264 104.942 26.9246 104.913 26.8272 104.873Z" fill="url(#paint0_linear)"/>
        <path d="M48.1293 156.087L51.8093 156.087L53.5598 141.85L48.1287 141.85L48.1293 156.087Z" fill="#FFB8B8"/>
        <path d="M58.9067 159.514L47.3411 159.514L47.3409 155.032L54.438 155.032C55.6231 155.032 56.7597 155.504 57.5977 156.344C58.4358 157.185 58.9066 158.325 58.9067 159.514Z" fill="#2F2E41"/>
        <path d="M29.8193 156.087L33.4993 156.087L35.2499 141.85L29.8187 141.85L29.8193 156.087Z" fill="#FFB8B8"/>
        <path d="M40.5966 159.514L29.031 159.514L29.0308 155.032L36.1279 155.032C37.313 155.032 38.4496 155.504 39.2876 156.344C40.1257 157.185 40.5965 158.325 40.5966 159.514Z" fill="#2F2E41"/>
        <path d="M49.1351 98.0613L52.3699 123.768C52.8146 127.302 53.1258 130.85 53.3034 134.41L54.1749 151.892C54.183 152.055 54.158 152.218 54.1014 152.371C54.0448 152.524 53.9578 152.664 53.8456 152.783C53.7335 152.901 53.5985 152.995 53.449 153.059C53.2994 153.124 53.1384 153.157 52.9757 153.157H48.0661C47.7789 153.157 47.5012 153.054 47.2834 152.866C47.0656 152.678 46.9221 152.418 46.879 152.133L42.4636 122.956C42.4423 122.815 42.3721 122.686 42.2653 122.593C42.1585 122.499 42.0221 122.446 41.8803 122.444C41.7384 122.442 41.6003 122.49 41.4904 122.58C41.3806 122.67 41.306 122.796 41.2799 122.935L35.9606 151.512C35.9079 151.769 35.7731 152.001 35.5767 152.174C35.3802 152.347 35.1328 152.451 34.8721 152.471L30.3534 152.758C30.1856 152.77 30.0172 152.747 29.8589 152.69C29.7006 152.633 29.5561 152.543 29.4347 152.426C29.3133 152.309 29.2177 152.168 29.1542 152.012C29.0906 151.856 29.0605 151.688 29.0657 151.519L30.5249 104.685L49.1351 98.0613Z" fill="#2F2E41"/>
        <path d="M34.803 61.4453C38.8746 61.4453 42.1753 58.1347 42.1753 54.0508C42.1753 49.9669 38.8746 46.6562 34.803 46.6562C30.7313 46.6562 27.4306 49.9669 27.4306 54.0508C27.4306 58.1347 30.7313 61.4453 34.803 61.4453Z" fill="#FFB8B8"/>
        <path d="M29.0239 105.287C30.8249 109.502 38.6292 112.513 40.4301 106.491C41.823 101.837 47.3399 99.8799 49.7742 99.2326C50.0803 99.1507 50.342 98.9513 50.5026 98.6775C50.6633 98.4037 50.7101 98.0775 50.6328 97.7694L43.828 70.9592C43.4316 69.3975 42.6423 67.9639 41.5354 66.7958C40.4286 65.6276 39.0413 64.764 37.5065 64.2876C32.0976 62.6076 26.3945 66.0669 25.4789 71.6697C25.2289 73.2408 25.0695 74.8251 25.0017 76.4146C24.4373 88.2436 27.8382 102.511 29.0239 105.287Z" fill="url(#paint1_linear)"/>
        <path d="M53.4548 105.279C53.4106 104.839 53.2707 104.413 53.045 104.033C52.8193 103.653 52.5131 103.327 52.1482 103.078C51.7832 102.829 51.3683 102.664 50.9327 102.593C50.4971 102.523 50.0513 102.549 49.6268 102.67L43.4756 93.856L41.4233 99.0539L47.5792 106.627C47.829 107.329 48.3268 107.914 48.9782 108.272C49.6297 108.631 50.3895 108.737 51.1137 108.571C51.838 108.404 52.4763 107.978 52.9078 107.371C53.3392 106.764 53.5339 106.02 53.4548 105.279L53.4548 105.279Z" fill="#FFB8B8"/>
        <path d="M45.8455 104.778C45.6558 104.772 45.4694 104.727 45.2983 104.645C45.1272 104.563 44.9753 104.445 44.8524 104.3L36.0645 93.4421C33.8806 90.8623 32.7052 87.5746 32.7571 84.1907L32.9265 73.0412C32.8112 72.4797 32.8073 71.9008 32.9151 71.3377C33.023 70.7747 33.2403 70.2384 33.5548 69.7596C33.8693 69.2809 34.2748 68.8689 34.7481 68.5474C35.2214 68.2258 35.7532 68.0009 36.3131 67.8856C36.8731 67.7703 37.4502 67.7667 38.0115 67.8752C38.5729 67.9836 39.1074 68.202 39.5845 68.5177C40.0617 68.8334 40.4722 69.2404 40.7925 69.7153C41.1128 70.1902 41.3367 70.7237 41.4513 71.2854L42.098 88.9603L48.8511 100.947C48.9753 101.196 49.0203 101.477 48.9799 101.752C48.9396 102.028 48.8159 102.284 48.6256 102.487L46.8632 104.354C46.6741 104.555 46.4287 104.692 46.1596 104.749C46.0564 104.771 45.951 104.781 45.8455 104.778Z" fill="url(#paint2_linear)"/>
        <path d="M29.2072 60.0991C29.3659 60.1935 29.5443 60.25 29.7283 60.2642C29.9123 60.2784 30.0971 60.2499 30.2685 60.181C30.4398 60.1121 30.593 60.0045 30.7162 59.8667C30.8394 59.7288 30.9293 59.5644 30.979 59.3861L30.9831 59.3693C31.1169 58.808 31.0058 58.222 30.9674 57.6462C30.929 57.0705 30.9852 56.4379 31.3761 56.0146C32.1049 55.2255 33.4015 55.6438 34.4554 55.4443C35.0726 55.3061 35.6186 54.947 35.9909 54.4342C36.3633 53.9215 36.5366 53.2902 36.4785 52.6585C36.4635 52.5388 36.4399 52.419 36.4136 52.2993C36.3476 51.9959 36.3527 51.6814 36.4284 51.3803C36.5041 51.0792 36.6484 50.7998 36.8498 50.5641C37.0513 50.3284 37.3045 50.1427 37.5895 50.0216C37.8746 49.9005 38.1837 49.8473 38.4927 49.8663C39.5577 49.9274 40.7073 50.251 41.5885 49.4598C41.9115 49.1477 42.1358 48.7471 42.2333 48.308C42.3308 47.8689 42.2972 47.4107 42.1367 46.9906C41.6336 45.534 40.2116 44.7714 38.8044 44.3522C37.0639 43.8478 35.2333 43.7387 33.4456 44.033C31.6579 44.3272 29.958 45.0173 28.4696 46.0531C27.5808 46.6815 26.7507 47.4711 26.3718 48.4935C25.993 49.5159 26.1758 50.8058 27.03 51.4807C26.3678 52.1839 25.9015 53.0493 25.6779 53.9902C25.4542 54.931 25.4809 55.9144 25.7555 56.8416C26.1774 58.2053 28.1911 59.5127 29.2072 60.0991Z" fill="#2F2E41"/>
        <path d="M82.8773 160H3.33367C3.25406 160 3.17772 159.968 3.12142 159.912C3.06513 159.855 3.03351 159.779 3.03351 159.699C3.03351 159.619 3.06513 159.543 3.12142 159.486C3.17772 159.43 3.25406 159.398 3.33367 159.398H82.8773C82.9569 159.398 83.0332 159.43 83.0895 159.486C83.1458 159.543 83.1775 159.619 83.1775 159.699C83.1775 159.779 83.1458 159.855 83.0895 159.912C83.0332 159.968 82.9569 160 82.8773 160Z" fill="#919191"/>
    </g>
    <defs>
        <linearGradient id="paint0_linear" x1="27.8862" y1="66.948" x2="27.8862" y2="104.977" gradientUnits="userSpaceOnUse">
            <stop stop-color="#FFE38C"/>
            <stop offset="1" stop-color="#F1CD5F"/>
        </linearGradient>
        <linearGradient id="paint1_linear" x1="37.8041" y1="63.8616" x2="37.8041" y2="109.883" gradientUnits="userSpaceOnUse">
            <stop stop-color="#FFE38C"/>
            <stop offset="1" stop-color="#F1CD5F"/>
        </linearGradient>
        <linearGradient id="paint2_linear" x1="40.8749" y1="67.7964" x2="40.8749" y2="104.778" gradientUnits="userSpaceOnUse">
            <stop stop-color="#FFE38C"/>
            <stop offset="1" stop-color="#F1CD5F"/>
        </linearGradient>
        <clipPath id="clip0">
            <rect width="232" height="160" fill="white"/>
        </clipPath>
    </defs>
</svg>
