<svg width="20" height="20" viewBox="0 0 20 20" fill="none" xmlns="http://www.w3.org/2000/svg">
    <circle cx="10" cy="10" r="10" fill="#E40000"/>
    <path d="M10.8686 13.5778C10.8686 13.7056 10.8457 13.8253 10.8 13.9371C10.7543 14.0489 10.6914 14.1467 10.6114 14.2305C10.5352 14.3144 10.4438 14.3802 10.3371 14.4281C10.2305 14.476 10.1162 14.5 9.99429 14.5C9.87238 14.5 9.7581 14.476 9.65143 14.4281C9.54476 14.3802 9.45143 14.3144 9.37143 14.2305C9.29143 14.1467 9.22857 14.0489 9.18286 13.9371C9.13714 13.8253 9.11429 13.7056 9.11429 13.5778C9.11429 13.4541 9.13714 13.3363 9.18286 13.2246C9.22857 13.1128 9.29143 13.017 9.37143 12.9371C9.45143 12.8573 9.54476 12.7934 9.65143 12.7455C9.7581 12.6976 9.87238 12.6737 9.99429 12.6737C10.1162 12.6737 10.2305 12.6976 10.3371 12.7455C10.4438 12.7934 10.5352 12.8573 10.6114 12.9371C10.6914 13.017 10.7543 13.1128 10.8 13.2246C10.8457 13.3363 10.8686 13.4541 10.8686 13.5778ZM11 6.54192C11 6.79741 10.9848 7.08882 10.9543 7.41617C10.9276 7.73952 10.8895 8.08483 10.84 8.4521C10.7943 8.81936 10.741 9.20259 10.68 9.6018C10.619 9.99701 10.5581 10.3922 10.4971 10.7874C10.4629 11.019 10.4286 11.2445 10.3943 11.4641C10.36 11.6836 10.3276 11.8992 10.2971 12.1108C10.2857 12.1906 10.2514 12.2565 10.1943 12.3084C10.1371 12.3563 10.0705 12.3802 9.99429 12.3802C9.9219 12.3802 9.85714 12.3563 9.8 12.3084C9.74667 12.2565 9.71429 12.1906 9.70286 12.1108C9.67238 11.8952 9.6381 11.6717 9.6 11.4401C9.5619 11.2086 9.52571 10.9691 9.49143 10.7216C9.43048 10.3343 9.36952 9.94711 9.30857 9.55988C9.25143 9.16866 9.2 8.79341 9.15429 8.43413C9.10857 8.07086 9.07048 7.72954 9.04 7.41018C9.01333 7.08683 9 6.79741 9 6.54192C9 6.3982 9.02476 6.26447 9.07429 6.14072C9.12762 6.01297 9.2 5.9012 9.29143 5.80539C9.38286 5.70958 9.48762 5.63573 9.60571 5.58383C9.72762 5.52794 9.85714 5.5 9.99429 5.5C10.1314 5.5 10.261 5.52794 10.3829 5.58383C10.5048 5.63573 10.6114 5.70958 10.7029 5.80539C10.7943 5.9012 10.8667 6.01297 10.92 6.14072C10.9733 6.26447 11 6.3982 11 6.54192Z" fill="white"/>
</svg>
