<svg width="22" height="22" viewBox="0 0 22 22" fill="none" xmlns="http://www.w3.org/2000/svg">
    <path d="M15.5172 12.5555C15.5078 10.957 16.232 9.75234 17.6945 8.86406C16.8766 7.69219 15.6391 7.04766 14.0078 6.92344C12.4633 6.80156 10.7734 7.82344 10.1547 7.82344C9.50078 7.82344 8.00547 6.96563 6.82891 6.96563C4.40078 7.00313 1.82031 8.90156 1.82031 12.7641C1.82031 13.9055 2.02891 15.0844 2.44609 16.2984C3.00391 17.8969 5.01484 21.8133 7.1125 21.75C8.20937 21.7242 8.98516 20.9719 10.4125 20.9719C11.7977 20.9719 12.5148 21.75 13.7383 21.75C15.8547 21.7195 17.6734 18.1594 18.2031 16.5563C15.3648 15.218 15.5172 12.6375 15.5172 12.5555ZM13.0539 5.40703C14.2422 3.99609 14.1344 2.71172 14.0992 2.25C13.0492 2.31094 11.8352 2.96484 11.1437 3.76875C10.382 4.63125 9.93437 5.69766 10.0305 6.9C11.1648 6.98672 12.2008 6.40313 13.0539 5.40703Z" fill="white"/>
</svg>
