<svg width="34" height="42" viewBox="0 0 34 42" fill="none" xmlns="http://www.w3.org/2000/svg">
    <path d="M32.8364 1.02023C33.3942 1.39715 33.7264 2.11672 33.4113 2.89625L18.452 40.3437C18.188 41.0033 17.5919 41.3246 17 41.3202V24.7913L32.8364 1.02023Z" fill="#CAAE52"/>
    <path d="M1.16302 1.01587C0.605186 1.39279 0.273514 2.11674 0.588629 2.89626L15.5479 40.3437C15.8119 41.0033 16.4081 41.3246 17 41.3202V24.7913L1.16302 1.01587Z" fill="#F1CD5F"/>
    <path d="M16.9999 14.1455C16.6164 14.1496 16.2329 14.0025 15.9368 13.7166L3.22957 1.02442C2.64175 0.452606 1.705 0.658626 1.16304 1.02442L16.9999 24.7955V14.1455Z" fill="#FAD464"/>
    <path d="M16.9995 14.1369C17.3831 14.1411 17.7666 13.9939 18.0626 13.708L30.7699 1.01588C31.3577 0.444061 32.2945 0.650081 32.8364 1.01587L16.9995 24.7946V14.1369Z" fill="#FFFEA7"/>
</svg>
