<svg width="22" height="22" viewBox="0 0 22 22" fill="none" xmlns="http://www.w3.org/2000/svg">
    <path d="M4.87566 13.2948L4.10988 16.1536L1.31093 16.2128C0.474461 14.6614 0 12.8863 0 11C0 9.17589 0.443609 7.45577 1.22994 5.94116H1.23054L3.72238 6.39801L4.81396 8.8749C4.5855 9.54096 4.46097 10.256 4.46097 11C4.46106 11.8074 4.60733 12.5811 4.87566 13.2948Z" fill="#F1CD5F"/>
    <path d="M21.8077 8.94507C21.934 9.61048 21.9999 10.2977 21.9999 11C21.9999 11.7875 21.9171 12.5557 21.7593 13.2967C21.2239 15.8183 19.8247 18.0201 17.8864 19.5782L17.8858 19.5776L14.7472 19.4175L14.303 16.6445C15.5891 15.8902 16.5942 14.7098 17.1237 13.2967H11.2417V8.94507H17.2095H21.8077Z" fill="#518EF8"/>
    <path d="M17.8857 19.5776L17.8863 19.5782C16.0012 21.0934 13.6066 22 10.9999 22C6.81079 22 3.16872 19.6586 1.31079 16.2129L4.87552 13.2949C5.80446 15.7741 8.19606 17.539 10.9999 17.539C12.205 17.539 13.3341 17.2132 14.3029 16.6445L17.8857 19.5776Z" fill="#28B446"/>
    <path d="M18.0216 2.53241L14.458 5.44981C13.4553 4.82307 12.2701 4.46102 11.0003 4.46102C8.13303 4.46102 5.6967 6.30682 4.81429 8.87494L1.23083 5.9412H1.23022C3.06095 2.41154 6.74896 0 11.0003 0C13.6693 0 16.1165 0.950727 18.0216 2.53241Z" fill="#F14336"/>
</svg>
