<svg width="58" height="80" viewBox="0 0 58 80" fill="none" xmlns="http://www.w3.org/2000/svg">
    <path d="M67.236 67.6779H51.1183V60.9411H64.3194V49.6467C64.3173 49.5873 64.2937 49.5306 64.253 49.4873L48.7398 33.9741L53.5034 29.2039L70.352 46.0524C70.8021 46.5068 71.0552 47.1203 71.0562 47.7599V63.8843C71.0509 64.8934 70.6459 65.8593 69.9299 66.5704C69.2138 67.2814 68.2452 67.6797 67.236 67.6779Z" fill="#DBD6E3"/>
    <path d="M22.51 67.6783H6.37894C5.87759 67.6792 5.38097 67.5812 4.91753 67.39C4.45408 67.1987 4.0329 66.9179 3.67808 66.5637C3.32326 66.2095 3.04176 65.7888 2.8497 65.3257C2.65763 64.8626 2.55878 64.3661 2.55878 63.8648V47.7404C2.55909 47.423 2.62204 47.1088 2.74403 46.8158C2.86602 46.5228 3.04465 46.2567 3.26966 46.0329L20.1182 29.1843L24.8818 33.9545L9.362 49.4678C9.32129 49.5111 9.29768 49.5678 9.29556 49.6272V60.9216H22.4967L22.51 67.6783Z" fill="#DBD6E3"/>
    <path d="M44.2486 32.147H29.1274C29.1291 30.2316 29.8904 28.3951 31.2441 27.04C32.5979 25.685 34.4337 24.9221 36.3492 24.9186H37.0135C38.9312 24.9186 40.7705 25.6799 42.1272 27.0353C43.4838 28.3907 44.2468 30.2293 44.2486 32.147Z" fill="#DBD6E3"/>
    <path d="M45.9364 6.09029L44.0961 4.28984C43.1823 3.14964 42.0239 2.22934 40.7067 1.59695C39.3894 0.964557 37.9469 0.63623 36.4857 0.63623C35.0244 0.63623 33.5819 0.964557 32.2646 1.59695C30.9474 2.22934 29.789 3.14964 28.8752 4.28984L27.4069 6.09029C22.0668 12.7722 19.1529 21.0689 19.1421 29.6225V72.3619C19.1421 73.2552 19.497 74.112 20.1287 74.7437C20.7604 75.3754 21.6171 75.7303 22.5105 75.7303C23.4038 75.7303 24.2606 75.3754 24.8923 74.7437C25.524 74.112 25.8789 73.2552 25.8789 72.3619V28.1077C25.8798 22.0693 27.9372 16.2113 31.7121 11.4983L36.6684 5.31298L41.6246 11.4983C45.4019 16.2104 47.4616 22.0685 47.4645 28.1077V72.3619C47.4645 73.2552 47.8194 74.112 48.4511 74.7437C49.0828 75.3754 49.9395 75.7303 50.8329 75.7303C51.7262 75.7303 52.583 75.3754 53.2147 74.7437C53.8464 74.112 54.2013 73.2552 54.2013 72.3619V29.6225C54.1904 21.0689 51.2765 12.7722 45.9364 6.09029Z" fill="#DBD6E3"/>
    <path d="M36.8143 75.7301C35.921 75.7301 35.0642 75.3752 34.4325 74.7435C33.8008 74.1118 33.4459 73.2551 33.4459 72.3617V51.3076H40.1827V72.3617C40.1827 73.2551 39.8278 74.1118 39.1961 74.7435C38.5644 75.3752 37.7077 75.7301 36.8143 75.7301Z" fill="#DBD6E3"/>
    <path d="M11.4484 84.4336C10.555 84.4336 9.69826 84.0787 9.06657 83.447C8.43487 82.8154 8.07999 81.9586 8.07999 81.0652V74.0029C8.07999 73.1096 8.43487 72.2528 9.06657 71.6211C9.69826 70.9894 10.555 70.6345 11.4484 70.6345C12.3417 70.6345 13.1985 70.9894 13.8302 71.6211C14.4619 72.2528 14.8168 73.1096 14.8168 74.0029V81.0652C14.8168 81.5076 14.7296 81.9456 14.5604 82.3543C14.3911 82.763 14.143 83.1343 13.8302 83.447C13.5174 83.7598 13.1461 84.008 12.7374 84.1772C12.3287 84.3465 11.8907 84.4336 11.4484 84.4336Z" fill="#DBD6E3"/>
    <path opacity="0.2" d="M69.2689 66.7744V50.6566C69.2686 50.3392 69.2057 50.025 69.0837 49.732C68.9617 49.439 68.7831 49.173 68.5581 48.9492L52.4137 32.7982V32.539C52.4018 23.9836 49.4881 15.6852 44.1489 9.00017L42.3085 7.17314C41.3947 6.03294 40.2364 5.11264 38.9191 4.48025C37.6018 3.84786 36.1593 3.51953 34.6981 3.51953C33.2369 3.51953 31.7944 3.84786 30.4771 4.48025C29.1598 5.11264 28.0015 6.03294 27.0877 7.17314L25.646 9.00017C20.3087 15.6858 17.3973 23.9843 17.3878 32.539V33.0838L1.52245 48.9425C1.29834 49.1667 1.12075 49.4329 0.999893 49.7259C0.879034 50.019 0.817295 50.333 0.818217 50.65V66.7677C0.817344 67.2691 0.915334 67.7657 1.10659 68.2292C1.29785 68.6926 1.57861 69.1138 1.93281 69.4686C2.28702 69.8234 2.70771 70.1049 3.17083 70.297C3.63394 70.489 4.13037 70.5879 4.63173 70.5879H17.3878V75.2385C17.3878 76.1319 17.7426 76.9887 18.3743 77.6204C19.006 78.2521 19.8628 78.6069 20.7562 78.6069C21.6495 78.6069 22.5063 78.2521 23.138 77.6204C23.7697 76.9887 24.1245 76.1319 24.1245 75.2385V31.0176C24.1255 24.9792 26.1828 19.1212 29.9578 14.4082L34.914 8.21621L39.8703 14.4082C43.6452 19.1212 45.7026 24.9792 45.7035 31.0176V75.2784C45.7035 76.1718 46.0584 77.0285 46.6901 77.6602C47.3218 78.2919 48.1785 78.6468 49.0719 78.6468C49.5148 78.6477 49.9535 78.5612 50.363 78.3923C50.7724 78.2234 51.1445 77.9754 51.458 77.6626C51.7715 77.3497 52.0202 76.9781 52.1899 76.569C52.3596 76.1599 52.4469 75.7213 52.4469 75.2784V70.5945H65.482C66.4894 70.5858 67.4526 70.1795 68.1618 69.464C68.8711 68.7485 69.269 67.7818 69.2689 66.7744ZM7.52178 63.8578V52.5634C7.52071 52.5345 7.52612 52.5059 7.53762 52.4794C7.54912 52.453 7.56641 52.4294 7.58822 52.4105L17.3545 42.6442V63.9043L7.52178 63.8578ZM62.5255 63.8578H52.4137V42.332L62.4657 52.384C62.4853 52.4042 62.5007 52.4282 62.511 52.4544C62.5212 52.4806 62.5262 52.5086 62.5255 52.5368V63.8578Z" fill="#DBD6E3"/>
    <path opacity="0.2" d="M35.2001 27.8353H34.5357C32.6215 27.8441 30.7887 28.6112 29.4389 29.9685C28.089 31.3258 27.3321 33.1628 27.3339 35.077H42.4285C42.4294 34.1269 42.2431 33.1859 41.8803 32.3078C41.5176 31.4297 40.9853 30.6316 40.3141 29.9591C39.6429 29.2867 38.8458 28.753 37.9684 28.3886C37.0909 28.0242 36.1502 27.8362 35.2001 27.8353Z" fill="#DBD6E3"/>
    <path opacity="0.2" d="M35.0271 78.6468C35.9205 78.6468 36.7772 78.292 37.4089 77.6603C38.0406 77.0286 38.3955 76.1718 38.3955 75.2785V54.2244H31.6587V75.2785C31.6587 76.1718 32.0136 77.0286 32.6453 77.6603C33.277 78.292 34.1338 78.6468 35.0271 78.6468Z" fill="#DBD6E3"/>
    <path opacity="0.2" d="M57.0182 76.9326V83.9949C57.0568 84.8633 57.4289 85.6833 58.057 86.2841C58.6851 86.8849 59.5207 87.2203 60.3899 87.2203C61.2591 87.2203 62.0948 86.8849 62.7229 86.2841C63.351 85.6833 63.7231 84.8633 63.7616 83.9949V76.9326C63.7231 76.0643 63.351 75.2443 62.7229 74.6434C62.0948 74.0426 61.2591 73.7073 60.3899 73.7073C59.5207 73.7073 58.6851 74.0426 58.057 74.6434C57.4289 75.2443 57.0568 76.0643 57.0182 76.9326Z" fill="#DBD6E3"/>
    <path opacity="0.2" d="M6.29333 76.9329V83.9952C6.29333 84.8885 6.64822 85.7453 7.27991 86.377C7.91161 87.0087 8.76838 87.3636 9.66173 87.3636C10.5551 87.3636 11.4118 87.0087 12.0435 86.377C12.6752 85.7453 13.0301 84.8885 13.0301 83.9952V76.9329C13.0301 76.0395 12.6752 75.1827 12.0435 74.551C11.4118 73.9193 10.5551 73.5645 9.66173 73.5645C8.76838 73.5645 7.91161 73.9193 7.27991 74.551C6.64822 75.1827 6.29333 76.0395 6.29333 76.9329Z" fill="#DBD6E3"/>
</svg>
