<svg width="58" height="81" viewBox="0 0 58 81" fill="none" xmlns="http://www.w3.org/2000/svg">
    <path d="M47.5691 85.4488C47.1862 85.6745 46.7615 85.8198 46.3207 85.876C45.8798 85.9322 45.4322 85.898 45.005 85.7755C44.5778 85.653 44.1801 85.4448 43.836 85.1636C43.4919 84.8823 43.2087 84.534 43.0036 84.1397C36.3312 71.5469 33.1438 57.4002 33.7709 43.1627C34.3981 28.9251 38.817 15.1135 46.5709 3.15609C46.81 2.77913 47.1237 2.45509 47.4927 2.20386C47.8617 1.95263 48.2781 1.77954 48.7165 1.69524C49.1549 1.61094 49.6058 1.61721 50.0417 1.71366C50.4775 1.81011 50.889 1.99471 51.2509 2.25609C51.929 2.74127 52.3963 3.46696 52.5575 4.28501C52.7186 5.10306 52.5615 5.95179 52.1182 6.65792C44.9733 17.6512 40.9016 30.3568 40.3261 43.4553C39.7506 56.5538 42.6922 69.5676 48.8454 81.1452C49.2242 81.8862 49.3064 82.7437 49.0753 83.5431C48.8443 84.3426 48.3174 85.024 47.6018 85.4488H47.5691Z" fill="#EBD3E0"/>
    <path d="M79.4945 86.0541H26.5909C25.7229 86.0541 24.8905 85.7093 24.2767 85.0956C23.663 84.4818 23.3182 83.6494 23.3182 82.7814C23.3182 81.9134 23.663 81.081 24.2767 80.4672C24.8905 79.8535 25.7229 79.5087 26.5909 79.5087H79.4945C80.3625 79.5087 81.1949 79.8535 81.8087 80.4672C82.4225 81.081 82.7673 81.9134 82.7673 82.7814C82.7673 83.6494 82.4225 84.4818 81.8087 85.0956C81.1949 85.7093 80.3625 86.0541 79.4945 86.0541Z" fill="#EBD3E0"/>
    <path d="M18.4746 86.0541H12.5019C11.6339 86.0541 10.8015 85.7093 10.1877 85.0956C9.57399 84.4818 9.22919 83.6494 9.22919 82.7814C9.22919 81.9134 9.57399 81.081 10.1877 80.4672C10.8015 79.8535 11.6339 79.5087 12.5019 79.5087H18.4746C19.3426 79.5087 20.175 79.8535 20.7888 80.4672C21.4026 81.081 21.7474 81.9134 21.7474 82.7814C21.7474 83.6494 21.4026 84.4818 20.7888 85.0956C20.175 85.7093 19.3426 86.0541 18.4746 86.0541Z" fill="#EBD3E0"/>
    <path d="M36.1801 27.0961C35.2707 23.8415 33.5002 20.8924 31.0552 18.5597C28.6102 16.227 25.5812 14.597 22.2874 13.8416C20.1432 13.3387 17.9256 13.2278 15.7419 13.5143C14.9653 13.5947 14.1855 13.3948 13.5434 12.9507C12.9012 12.5066 12.439 11.8475 12.2401 11.0925C12.1196 10.639 12.0981 10.165 12.1769 9.70243C12.2556 9.2399 12.433 8.79973 12.6968 8.41174C12.9606 8.02375 13.3048 7.69703 13.706 7.45372C14.1071 7.21041 14.5559 7.05621 15.0219 7.00157C21.0356 6.27372 27.1111 7.72356 32.148 11.0885C37.1849 14.4535 40.8503 19.5111 42.4801 25.3452L36.1801 27.0961Z" fill="#EBD3E0"/>
    <path d="M70.9362 31.1542C70.2885 31.6234 69.4914 31.8392 68.6955 31.7608C67.8996 31.6824 67.1599 31.3153 66.6162 30.7288C63.4318 27.5597 59.2195 25.6333 54.7395 25.2973C50.2595 24.9612 45.8069 26.2376 42.1853 28.896L38.3235 23.6106C43.2121 20.037 49.2192 18.333 55.2561 18.8074C61.2929 19.2817 66.9602 21.9029 71.2308 26.196C71.5578 26.528 71.8102 26.926 71.971 27.3634C72.1318 27.8007 72.1974 28.2674 72.1633 28.7322C72.1292 29.1969 71.9963 29.649 71.7734 30.0583C71.5505 30.4675 71.2427 30.8244 70.8708 31.1051L70.9362 31.1542Z" fill="#EBD3E0"/>
    <path d="M50.449 55.7979C49.6607 55.5715 48.9862 55.0574 48.5589 54.3574C48.1316 53.6574 47.9827 52.8224 48.1417 52.0179C49.0972 47.3605 48.8323 42.5353 47.3726 38.0106C45.7362 33.4451 42.938 30.3851 39.3708 29.3706C35.8035 28.356 31.778 29.4851 28.0308 32.5451C24.4313 35.6159 21.6816 39.5603 20.0453 43.9997C19.7596 44.7682 19.1958 45.4014 18.4655 45.7741C17.7352 46.1469 16.8917 46.2319 16.1017 46.0124C15.6696 45.8906 15.2672 45.6812 14.9195 45.3972C14.5718 45.1133 14.2862 44.7608 14.0805 44.3617C13.8749 43.9627 13.7535 43.5256 13.724 43.0776C13.6945 42.6297 13.7574 42.1804 13.909 41.7579C15.9276 36.1809 19.3685 31.2282 23.8908 27.3906C29.3399 22.956 35.4599 21.3851 41.1544 22.9888C46.849 24.5924 51.2344 29.1415 53.558 35.7688C55.4162 41.417 55.7659 47.4528 54.5726 53.2779C54.486 53.7242 54.3073 54.1476 54.048 54.5211C53.7886 54.8946 53.4543 55.2099 53.0664 55.447C52.6784 55.6841 52.2453 55.8377 51.7946 55.8982C51.344 55.9586 50.8857 55.9244 50.449 55.7979V55.7979Z" fill="#EBD3E0"/>
    <path opacity="0.2" d="M76.8272 82.1924H45.3435C40.2282 72.0058 37.5611 60.7658 37.5544 49.367C37.5545 43.9513 38.1471 38.5519 39.3217 33.2651C41.9175 35.0519 43.8322 37.6645 44.7544 40.6779C46.2297 45.2053 46.4948 50.0399 45.5235 54.7015C45.4408 55.1238 45.4421 55.5582 45.5272 55.9799C45.6124 56.4017 45.7798 56.8026 46.0199 57.1597C46.2599 57.5168 46.568 57.8231 46.9264 58.0611C47.2849 58.2991 47.6867 58.4642 48.109 58.547C48.9618 58.714 49.846 58.5355 50.5672 58.0506C50.9243 57.8106 51.2306 57.5025 51.4686 57.144C51.7066 56.7856 51.8717 56.3838 51.9545 55.9615C53.1331 50.1572 52.7835 44.1463 50.9399 38.5179C49.7221 34.776 47.4903 31.4453 44.4926 28.896C47.8164 27.7516 51.3947 27.5636 54.82 28.3534C58.2454 29.1432 61.3801 30.8791 63.8672 33.3633C64.1395 33.7443 64.4905 34.0623 64.8963 34.296C65.3021 34.5297 65.7533 34.6735 66.2195 34.7179C66.6857 34.7622 67.1559 34.706 67.5985 34.553C68.0411 34.4001 68.4457 34.1539 68.785 33.8311C69.1243 33.5084 69.3904 33.1166 69.5653 32.6822C69.7402 32.2478 69.8199 31.7809 69.7989 31.3131C69.7779 30.8453 69.6567 30.3874 69.4436 29.9705C69.2305 29.5535 68.9304 29.1871 68.5636 28.896C65.2335 25.5492 61.0343 23.1996 56.4399 22.1125C51.8454 21.0253 47.0386 21.2438 42.5617 22.7433C44.3881 18.063 46.6911 13.5831 49.4345 9.37422C49.8795 8.67002 50.0392 7.82263 49.8811 7.00473C49.723 6.18684 49.2589 5.46001 48.5835 4.9724C48.2207 4.71176 47.8083 4.52819 47.3718 4.43297C46.9353 4.33776 46.4839 4.33293 46.0454 4.41878C45.607 4.50463 45.1907 4.67934 44.8224 4.93215C44.454 5.18496 44.1413 5.51053 43.9035 5.88877C40.8845 10.5252 38.3511 15.4604 36.3435 20.616C33.7334 16.7677 30.1144 13.7121 25.883 11.784C21.6516 9.85595 16.9711 9.1298 12.3544 9.68514C11.4865 9.77844 10.6911 10.2127 10.1433 10.8925C9.59554 11.5722 9.34023 12.4417 9.43354 13.3097C9.52685 14.1777 9.96114 14.973 10.6409 15.5208C11.3206 16.0686 12.1901 16.3239 13.0581 16.2306C16.7101 15.7524 20.422 16.3602 23.7307 17.9782C27.0395 19.5962 29.7985 22.1527 31.6635 25.3288C27.8342 25.9657 24.2491 27.6283 21.289 30.1397C16.7653 33.9794 13.3195 38.931 11.2908 44.507C10.9914 45.3229 11.0283 46.2243 11.3935 47.013C11.7586 47.8016 12.4222 48.413 13.2381 48.7124C14.054 49.0119 14.9554 48.9749 15.7441 48.6097C16.5328 48.2446 17.1441 47.581 17.4435 46.7651C19.0569 42.2861 21.809 38.3045 25.429 35.2124C27.5716 33.3526 30.2104 32.1583 33.0217 31.776C29.2216 48.6911 31.0131 66.3826 38.1272 82.1924H23.9072C23.0392 82.1924 22.2068 82.5372 21.593 83.151C20.9793 83.7647 20.6345 84.5971 20.6345 85.4651C20.6345 86.3331 20.9793 87.1655 21.593 87.7793C22.2068 88.3931 23.0392 88.7379 23.9072 88.7379H76.8272C77.6952 88.7379 78.5276 88.3931 79.1414 87.7793C79.7551 87.1655 80.0999 86.3331 80.0999 85.4651C80.0999 84.5971 79.7551 83.7647 79.1414 83.151C78.5276 82.5372 77.6952 82.1924 76.8272 82.1924Z" fill="#EBD3E0"/>
</svg>
