<svg width="14" height="18" viewBox="0 0 14 18" fill="none" xmlns="http://www.w3.org/2000/svg">
    <path d="M5.52471 8.56162C4.66551 7.70285 4.66551 6.3068 5.52471 5.44803C6.38391 4.58926 7.78066 4.58926 8.63986 5.44803C9.49906 6.3068 9.49906 7.70285 8.63986 8.56162C7.78066 9.4248 6.38391 9.4248 5.52471 8.56162Z" stroke="#FDFDFD" stroke-width="2" stroke-miterlimit="10" stroke-linecap="round" stroke-linejoin="round"/>
    <path d="M7 1C10.4476 1 13.1309 4.02111 12.9951 7.39453C12.77 13.0448 7 16.8542 7 16.8542" stroke="#FDFDFD" stroke-width="2" stroke-miterlimit="10" stroke-linecap="round" stroke-linejoin="round"/>
    <path d="M1.38705 9.63184C1.46348 9.87846 1.54839 10.1207 1.63756 10.3585C3.18727 14.3353 6.99999 16.8543 6.99999 16.8543" stroke="#FDFDFD" stroke-width="2" stroke-miterlimit="10" stroke-linecap="round" stroke-linejoin="round"/>
    <path d="M7 1C3.55242 1 0.869075 4.02111 1.00494 7.39453" stroke="#FDFDFD" stroke-width="2" stroke-miterlimit="10" stroke-linecap="round" stroke-linejoin="round"/>
</svg>
