<svg width="23" height="22" viewBox="0 0 23 22" fill="none" xmlns="http://www.w3.org/2000/svg">
    <path fill-rule="evenodd" clip-rule="evenodd" d="M11 1C5.3667 1 1 5.1264 1 10.7C1 13.6154 2.1948 16.1346 4.14056 17.8746C4.3039 18.0208 4.4025 18.2256 4.4092 18.4448L4.46366 20.2236C4.48106 20.791 5.06714 21.1602 5.58634 20.931L7.5712 20.0548C7.73946 19.9806 7.928 19.9668 8.1053 20.0156C9.0174 20.2664 9.98816 20.4 11 20.4C16.6333 20.4 21 16.2736 21 10.7C21 5.1264 16.6333 1 11 1Z" fill="url(#paint0_radial)"/>
    <path fill-rule="evenodd" clip-rule="evenodd" d="M4.99505 13.5368L7.93255 8.87638C8.39981 8.13498 9.40041 7.95038 10.1015 8.47618L12.4378 10.2284C12.6522 10.3892 12.9471 10.3884 13.1606 10.2264L16.3159 7.83168C16.7371 7.51208 17.2868 8.01608 17.005 8.46334L14.0675 13.1238C13.6002 13.8651 12.5996 14.0498 11.8985 13.5239L9.56215 11.7716C9.34781 11.6109 9.05285 11.6117 8.83941 11.7737L5.68405 14.1684C5.26291 14.488 4.71315 13.984 4.99505 13.5368Z" fill="#FDFDFD"/>
    <defs>
        <radialGradient id="paint0_radial" cx="0" cy="0" r="1" gradientUnits="userSpaceOnUse" gradientTransform="translate(4.84949 20.893) scale(21.7919)">
            <stop stop-color="#0099FF"/>
            <stop offset="0.609754" stop-color="#A033FF"/>
            <stop offset="0.934823" stop-color="#FF5280"/>
            <stop offset="1" stop-color="#FF7061"/>
        </radialGradient>
    </defs>
</svg>
