<svg width="18" height="19" viewBox="0 0 18 19" fill="none" xmlns="http://www.w3.org/2000/svg">
    <g clip-path="url(#clip0)">
        <path d="M4.63573 3.80065C5.7355 2.63182 7.28074 1.89905 8.99768 1.89905C12.3248 1.89905 15.0209 4.64131 15.0209 8.02642V9.92802C15.0209 12.2207 15.5916 14.4325 17.0719 16.1048L0.92807 16.1093C2.40371 14.4325 2.97911 12.2252 2.97911 9.93251V8.03092C2.97911 7.21723 3.13689 6.43951 3.41995 5.72472" stroke="#FDFDFD" stroke-width="2" stroke-miterlimit="10" stroke-linecap="round" stroke-linejoin="round"/>
        <path d="M9.79583 16.496C9.884 16.6353 9.93504 16.7972 9.93504 16.9725C9.93504 17.4715 9.51741 17.8761 9.00233 17.8761C8.48724 17.8761 8.06961 17.4715 8.06961 16.9725C8.06961 16.8062 8.11601 16.6488 8.19954 16.514" stroke="#FDFDFD" stroke-width="2" stroke-miterlimit="10" stroke-linecap="round" stroke-linejoin="round"/>
    </g>
    <circle cx="13" cy="4" r="4" fill="#CB0909"/>
    <defs>
        <clipPath id="clip0">
            <rect width="18" height="18" fill="white" transform="translate(0 1)"/>
        </clipPath>
    </defs>
</svg>
