<svg width="18" height="18" viewBox="0 0 18 18" fill="none" xmlns="http://www.w3.org/2000/svg">
    <g clip-path="url(#clip0)">
        <path d="M4.63564 2.80065C5.7354 1.63182 7.28065 0.899048 8.99758 0.899048C12.3247 0.899048 15.0208 3.64131 15.0208 7.02642V8.92802C15.0208 11.2207 15.5916 13.4325 17.0718 15.1048L0.927979 15.1093C2.40362 13.4325 2.97902 11.2252 2.97902 8.93251V7.03092C2.97902 6.21723 3.1368 5.43951 3.41986 4.72472" stroke="#FDFDFD" stroke-width="2" stroke-miterlimit="10" stroke-linecap="round" stroke-linejoin="round"/>
        <path d="M9.7958 15.496C9.88397 15.6353 9.93501 15.7972 9.93501 15.9725C9.93501 16.4715 9.51738 16.8761 9.0023 16.8761C8.48721 16.8761 8.06958 16.4715 8.06958 15.9725C8.06958 15.8062 8.11598 15.6488 8.19951 15.514" stroke="#FDFDFD" stroke-width="2" stroke-miterlimit="10" stroke-linecap="round" stroke-linejoin="round"/>
    </g>
    <defs>
        <clipPath id="clip0">
            <rect width="18" height="18" fill="white"/>
        </clipPath>
    </defs>
</svg>
