<svg width="45" height="80" viewBox="0 0 45 80" fill="none" xmlns="http://www.w3.org/2000/svg">
    <path d="M37.472 30.6481L33.9989 20.827L27.3518 2.29824C27.1704 1.80674 26.8415 1.38328 26.4102 1.08583C25.9789 0.788371 25.4662 0.631435 24.9423 0.63647H5.06746C4.65705 0.635201 4.25245 0.733293 3.8882 0.922379C3.52394 1.11146 3.21087 1.38592 2.97574 1.72229C2.74061 2.05866 2.5904 2.44696 2.53794 2.854C2.48549 3.26104 2.53235 3.67472 2.67451 4.05972L17.9961 46.2687C19.5681 44.5124 21.4213 43.0298 23.4799 41.8817L11.0831 7.76547C11.0651 7.70937 11.0603 7.64986 11.0692 7.5916C11.078 7.53335 11.1002 7.47793 11.1339 7.42966C11.1677 7.3814 11.2122 7.3416 11.2639 7.31337C11.3156 7.28514 11.3732 7.26925 11.4321 7.26694H21.6686C21.7456 7.26644 21.8208 7.29027 21.8834 7.33503C21.9461 7.37979 21.993 7.4432 22.0175 7.51621L30.3264 30.565L33.4505 39.1397H33.7663H34.2814C36.5527 39.2085 38.7978 39.6463 40.9285 40.4359L37.472 30.6481Z" fill="#B9CEC5"/>
    <path d="M40.6461 2.29824L35.3284 16.9717L36.3255 19.6804L38.868 26.7097L45.8474 7.51621C45.8719 7.4432 45.9189 7.37979 45.9815 7.33503C46.0442 7.29027 46.1194 7.26644 46.1964 7.26694H56.4163C56.4765 7.26555 56.5361 7.27904 56.5898 7.30623C56.6436 7.33341 56.6897 7.37345 56.7243 7.42278C56.7588 7.47211 56.7806 7.5292 56.7878 7.58898C56.7949 7.64876 56.7872 7.70939 56.7653 7.76547L44.3685 41.9315C46.4168 43.1146 48.258 44.6245 49.8191 46.4017L65.1905 4.05972C65.3326 3.67472 65.3795 3.26104 65.327 2.854C65.2746 2.44696 65.1244 2.05866 64.8892 1.72229C64.6541 1.38592 64.341 1.11146 63.9768 0.922379C63.6125 0.733293 63.2079 0.635201 62.7975 0.63647H43.0557C42.5317 0.631435 42.0191 0.788371 41.5878 1.08583C41.1565 1.38328 40.8276 1.80674 40.6461 2.29824Z" fill="#B9CEC5"/>
    <path d="M33.8329 84.9546C28.9719 84.9546 24.2201 83.5131 20.1783 80.8125C16.1366 78.1119 12.9864 74.2734 11.1262 69.7824C9.26594 65.2914 8.77922 60.3497 9.72756 55.5821C10.6759 50.8145 13.0167 46.4352 16.4539 42.9979C19.8912 39.5607 24.2705 37.2199 29.0381 36.2716C33.8057 35.3232 38.7474 35.81 43.2384 37.6702C47.7293 39.5304 51.5678 42.6806 54.2684 46.7224C56.9691 50.7641 58.4105 55.5159 58.4105 60.3769C58.4017 66.8926 55.8095 73.1389 51.2022 77.7462C46.5949 82.3535 40.3486 84.9458 33.8329 84.9546ZM33.8329 42.4464C30.2866 42.4464 26.8199 43.498 23.8712 45.4683C20.9226 47.4385 18.6244 50.2389 17.2673 53.5152C15.9102 56.7916 15.5551 60.3968 16.2469 63.875C16.9388 67.3532 18.6465 70.5481 21.1541 73.0557C23.6617 75.5634 26.8567 77.2711 30.3348 77.9629C33.813 78.6548 37.4182 78.2997 40.6946 76.9426C43.971 75.5855 46.7714 73.2873 48.7416 70.3386C50.7118 67.39 51.7634 63.9233 51.7634 60.3769C51.759 55.6228 49.8685 51.0647 46.5068 47.703C43.1452 44.3413 38.587 42.4508 33.8329 42.4464Z" fill="#B9CEC5"/>
    <path d="M35.1623 51.9684L36.8241 55.5246C36.9113 55.6947 37.0386 55.841 37.1949 55.951C37.3512 56.061 37.5319 56.1314 37.7214 56.1561L41.6266 56.7377C41.845 56.7679 42.0506 56.8588 42.22 56.9999C42.3894 57.141 42.5159 57.3268 42.5851 57.5361C42.6543 57.7454 42.6634 57.97 42.6115 58.1843C42.5596 58.3986 42.4487 58.594 42.2913 58.7485L39.4497 61.507C39.3158 61.6431 39.216 61.8088 39.1582 61.9907C39.1005 62.1726 39.0865 62.3656 39.1173 62.5539L39.782 66.4425C39.8137 66.6531 39.7877 66.8683 39.707 67.0654C39.6262 67.2624 39.4936 67.4339 39.3232 67.5617C39.1528 67.6895 38.9511 67.7687 38.7393 67.7911C38.5275 67.8135 38.3136 67.7781 38.1203 67.6888L34.6139 65.8608C34.4452 65.7707 34.2569 65.7235 34.0655 65.7235C33.8742 65.7235 33.6859 65.7707 33.5172 65.8608L30.0274 67.6888C29.8341 67.7781 29.6202 67.8135 29.4084 67.7911C29.1967 67.7687 28.9949 67.6895 28.8245 67.5617C28.6541 67.4339 28.5215 67.2624 28.4407 67.0654C28.36 66.8683 28.334 66.6531 28.3657 66.4425L29.0304 62.5539C29.062 62.3642 29.0467 62.1696 28.9858 61.9871C28.925 61.8047 28.8205 61.6398 28.6814 61.507L25.8564 58.7485C25.699 58.594 25.5881 58.3986 25.5362 58.1843C25.4843 57.97 25.4934 57.7454 25.5626 57.5361C25.6318 57.3268 25.7583 57.141 25.9277 56.9999C26.0971 56.8588 26.3027 56.7679 26.5211 56.7377L30.4263 56.1561C30.6142 56.1331 30.7934 56.0632 30.9473 55.9528C31.1012 55.8425 31.2249 55.6952 31.307 55.5246L33.0685 51.9684C33.1681 51.7768 33.3184 51.6161 33.503 51.504C33.6876 51.3919 33.8994 51.3326 34.1154 51.3326C34.3314 51.3326 34.5432 51.3919 34.7278 51.504C34.9124 51.6161 35.0627 51.7768 35.1623 51.9684Z" fill="#B9CEC5"/>
    <path opacity="0.2" d="M60.3713 2.97949H40.646C40.1221 2.97445 39.6095 3.1314 39.1781 3.42886C38.7468 3.72631 38.418 4.14975 38.2365 4.64126L32.9022 19.3147L33.8993 22.0234L36.4418 28.9862L43.4212 9.79275C43.4463 9.72139 43.4939 9.66012 43.5569 9.61816C43.6198 9.5762 43.6947 9.55582 43.7702 9.5601H53.9402C53.9984 9.55973 54.0559 9.57324 54.1078 9.59953C54.1597 9.62583 54.2046 9.66413 54.2387 9.71127C54.2728 9.7584 54.2952 9.81301 54.304 9.87053C54.3128 9.92806 54.3077 9.98685 54.2892 10.042L43.0889 41.1172C41.228 40.1493 39.2511 39.4233 37.2062 38.9569L35.0459 33.0077L31.5063 23.1866L24.8592 4.65788C24.6787 4.16905 24.3524 3.74749 23.9243 3.45026C23.4963 3.15303 22.9873 2.9945 22.4663 2.99611H2.64131C2.23091 2.99484 1.8263 3.09293 1.46205 3.28202C1.0978 3.4711 0.784725 3.74556 0.549592 4.08193C0.314458 4.4183 0.164253 4.8066 0.111797 5.21364C0.0593403 5.62068 0.106199 6.03436 0.248367 6.41936L14.307 45.1387C10.7991 48.539 8.38412 52.9077 7.37051 57.6869C6.3569 62.466 6.79061 67.4389 8.61625 71.9704C10.4419 76.502 13.5766 80.3866 17.6202 83.1284C21.6638 85.8701 26.4328 87.3446 31.3182 87.3635C36.2036 87.3824 40.9839 85.9449 45.0486 83.2345C49.1133 80.5241 52.278 76.6639 54.1386 72.1466C55.9993 67.6293 56.4715 62.66 55.4949 57.8731C54.5183 53.0862 52.1373 48.699 48.6558 45.2716L62.7642 6.41936C62.9098 6.03347 62.9593 5.61796 62.9085 5.20867C62.8577 4.79937 62.708 4.40859 62.4725 4.07003C62.237 3.73146 61.9226 3.45527 61.5566 3.26528C61.1905 3.07529 60.7837 2.9772 60.3713 2.97949ZM8.67355 10.1085C8.65064 10.0534 8.64224 9.9933 8.64917 9.93401C8.6561 9.87472 8.67812 9.8182 8.71313 9.76986C8.74814 9.72151 8.79497 9.68294 8.84913 9.65785C8.9033 9.63277 8.96301 9.622 9.02252 9.62658H19.2424C19.3179 9.62229 19.3928 9.64267 19.4557 9.68463C19.5187 9.72659 19.5663 9.78786 19.5914 9.85922L27.9003 32.9246L29.8445 38.2423C26.3604 38.4538 22.9613 39.4056 19.8739 41.0341L8.67355 10.1085ZM49.3371 62.7368C49.3371 66.2831 48.2855 69.7498 46.3153 72.6985C44.3451 75.6472 41.5447 77.9454 38.2683 79.3025C34.9919 80.6596 31.3867 81.0147 27.9085 80.3228C24.4303 79.631 21.2354 77.9233 18.7278 75.4156C16.2202 72.908 14.5125 69.7131 13.8206 66.2349C13.1288 62.7567 13.4838 59.1515 14.8409 55.8751C16.1981 52.5987 18.4963 49.7984 21.4449 47.8281C24.3936 45.8579 27.8603 44.8063 31.4066 44.8063C36.1607 44.8107 40.7189 46.7012 44.0805 50.0629C47.4422 53.4246 49.3327 57.9827 49.3371 62.7368Z" fill="#B9CEC5"/>
    <path opacity="0.2" d="M39.2833 59.0806L35.3782 58.5156C35.1874 58.4879 35.0063 58.4145 34.85 58.3016C34.6938 58.1888 34.5671 58.0399 34.4808 57.8675L32.7359 54.328C32.6379 54.132 32.4873 53.9672 32.3009 53.8521C32.1146 53.7369 31.8998 53.6759 31.6807 53.6759C31.4616 53.6759 31.2469 53.7369 31.0605 53.8521C30.8741 53.9672 30.7235 54.132 30.6255 54.328L28.9637 57.8675C28.8774 58.0399 28.7507 58.1888 28.5945 58.3016C28.4383 58.4145 28.2571 58.4879 28.0664 58.5156L24.1612 59.0806C23.9429 59.1143 23.7381 59.2078 23.5697 59.3507C23.4012 59.4937 23.2756 59.6804 23.2068 59.8904C23.1379 60.1003 23.1286 60.3252 23.1797 60.5401C23.2308 60.755 23.3405 60.9516 23.4965 61.108L26.255 63.8832C26.3889 64.0192 26.4887 64.185 26.5465 64.3669C26.6042 64.5488 26.6183 64.7417 26.5874 64.9301L25.9227 68.8186C25.891 69.0292 25.917 69.2445 25.9978 69.4415C26.0785 69.6386 26.2111 69.8101 26.3815 69.9379C26.5519 70.0656 26.7537 70.1449 26.9655 70.1673C27.1772 70.1897 27.3911 70.1543 27.5844 70.065L31.0742 68.2204C31.2459 68.1302 31.4369 68.083 31.6309 68.083C31.8248 68.083 32.0159 68.1302 32.1876 68.2204L35.6773 70.065C35.8706 70.1543 36.0845 70.1897 36.2963 70.1673C36.5081 70.1449 36.7098 70.0656 36.8802 69.9379C37.0506 69.8101 37.1832 69.6386 37.264 69.4415C37.3448 69.2445 37.3707 69.0292 37.3391 68.8186L36.6743 64.9301C36.6428 64.7404 36.6581 64.5458 36.7189 64.3633C36.7797 64.1808 36.8842 64.016 37.0233 63.8832L39.8483 61.1246C40.008 60.9754 40.1238 60.7854 40.1831 60.5751C40.2424 60.3647 40.243 60.1422 40.1847 59.9316C40.1265 59.7209 40.0117 59.5303 39.8528 59.3803C39.6939 59.2303 39.497 59.1266 39.2833 59.0806Z" fill="#B9CEC5"/>
</svg>
