<svg width="22" height="23" viewBox="0 0 22 23" fill="none" xmlns="http://www.w3.org/2000/svg">
    <g clip-path="url(#clip0)">
        <path d="M20.24 15.3787L18.711 13.8497C17.831 12.9697 16.4065 12.9697 15.532 13.8497L14.707 14.6747C13.607 15.7747 11.8305 15.7747 10.7305 14.6747L7.45253 11.3967C6.35253 10.2967 6.35253 8.52017 7.45253 7.42017L8.27753 6.59517C9.15753 5.71517 9.15753 4.29067 8.27753 3.41617L6.74853 1.88717C5.86853 1.00717 4.44403 1.00717 3.56953 1.88717C0.280533 5.17617 0.280533 10.5112 3.56953 13.8002C4.75753 14.9882 7.13903 17.3697 8.32703 18.5577C11.616 21.8467 16.951 21.8467 20.24 18.5577C21.12 17.6777 21.12 16.2532 20.24 15.3787Z" stroke="currentColor" stroke-width="2" stroke-miterlimit="10" stroke-linecap="round" stroke-linejoin="round"/>
    </g>
    <defs>
        <linearGradient id="paint0_linear" x1="11.0014" y1="1.22717" x2="11.0014" y2="21.0244" gradientUnits="userSpaceOnUse">
            <stop stop-color="#FFE38C"/>
            <stop offset="1" stop-color="#F1CD5F"/>
        </linearGradient>
        <clipPath id="clip0">
            <rect width="22" height="22" fill="white" transform="translate(0 0.127197)"/>
        </clipPath>
    </defs>
</svg>
