<svg width="30" height="30" viewBox="0 0 30 30" fill="none" xmlns="http://www.w3.org/2000/svg">
    <path fill-rule="evenodd" clip-rule="evenodd" d="M9.38017 7C9.33634 7 9.29256 7.00311 9.24918 7.0093C8.51322 7.11432 7.83824 7.49582 7.26552 7.94065C6.68335 8.39281 6.13935 8.96337 5.6604 9.54577C4.75864 10.6423 4.01895 11.8651 3.6272 12.6435C2.72557 13.1232 1 14.047 1 15.6231V18.6828C1 19.1361 1.76857 20.8926 3.52758 20.8926H4.10036C4.24817 22.462 5.56935 23.6899 7.17733 23.6899C8.7853 23.6899 10.1065 22.462 10.2543 20.8926H20.7902C20.9381 22.462 22.2592 23.6899 23.8672 23.6899C25.4752 23.6899 26.7964 22.462 26.9442 20.8926H27.0656C27.8851 20.8926 29.1176 20.4446 28.991 17.7196C28.9847 17.5855 28.9735 17.4547 28.9575 17.3272C28.8893 17.4287 28.7932 17.493 28.6578 17.493C28.2311 17.493 27.5761 16.8534 27.5761 16.4267C27.5761 16 27.922 15.654 28.3488 15.654C28.3667 15.654 28.3846 15.6546 28.4023 15.6558C26.9701 13.1725 23.3808 12.5633 22.4844 12.5633H22.3173C21.3731 11.0601 20.2378 9.77331 19.1182 8.82103C17.963 7.83843 16.6966 7.10334 15.6005 7.0038C15.5726 7.00127 15.5446 7 15.5166 7H9.38017ZM19.9342 12.38L13.0834 12.2691V8.85443H15.4686C15.9853 8.91679 16.8684 9.34195 17.9167 10.2336C18.5935 10.8092 19.289 11.5372 19.9342 12.38ZM9.45595 8.85443H11.229V12.2542H5.98847C6.30223 11.7625 6.67884 11.2269 7.0927 10.7237C7.51895 10.2054 7.96539 9.74514 8.40304 9.40522C8.82199 9.07982 9.17695 8.9084 9.45595 8.85443ZM22.6309 20.5992C22.6309 19.9164 23.1844 19.3629 23.8672 19.3629C24.55 19.3629 25.1035 19.9164 25.1035 20.5992C25.1035 21.282 24.55 21.8355 23.8672 21.8355C23.1844 21.8355 22.6309 21.282 22.6309 20.5992ZM7.17733 19.3629C6.49454 19.3629 5.94104 19.9164 5.94104 20.5992C5.94104 21.282 6.49454 21.8355 7.17733 21.8355C7.86011 21.8355 8.41361 21.282 8.41361 20.5992C8.41361 19.9164 7.86011 19.3629 7.17733 19.3629Z" fill="currentColor"/>
</svg>
