<svg width="30" height="30" viewBox="0 0 30 30" fill="none" xmlns="http://www.w3.org/2000/svg">
    <path fill-rule="evenodd" clip-rule="evenodd" d="M13.8471 6C13.3013 6 12.8588 6.44245 12.8588 6.98824C12.8588 7.53402 13.3013 7.97647 13.8471 7.97647H16.3414L17.693 9.64C16.8583 10.0212 16.2258 10.5221 15.8235 10.9412L11.5331 10.9412C9.11603 10.3171 6.36688 9.95294 4.95294 9.95294C4.75863 9.96789 4.45241 9.96831 4.09978 9.96879C3.12511 9.97012 1.79576 9.97193 1.49412 10.2824C0.916654 10.8766 0.835299 12.4235 1.98824 12.9176C2.88637 13.1067 3.73024 13.2144 4.51595 13.3147C6.22169 13.5323 7.65332 13.715 8.77101 14.6196L6.87353 16.5171C6.38162 16.3201 5.84464 16.2118 5.28235 16.2118C2.91727 16.2118 1 18.129 1 20.4941C1 22.8592 2.91727 24.7765 5.28235 24.7765C7.12634 24.7765 8.69811 23.611 9.3012 21.9765H20.6988C21.3019 23.611 22.8737 24.7765 24.7176 24.7765C27.0827 24.7765 29 22.8592 29 20.4941C29 18.129 27.0827 16.2118 24.7176 16.2118C24.1554 16.2118 23.6184 16.3201 23.1265 16.5171L20.3568 13.7475L20.5654 13.0985C21.3915 12.7931 22.7373 12.7461 24.8824 13.4118C28.5059 14.8941 27.6824 12.0941 26.2 11.2706C23.6866 9.38554 21.5103 8.91131 19.7783 9.07985C19.7603 9.05269 19.7409 9.02615 19.7199 9.00036L17.5787 6.36506C17.3911 6.1341 17.1094 6 16.8118 6H13.8471ZM19.6769 15.8627L18.4411 19.7075C18.4038 19.8233 18.3366 19.9233 18.2496 20H20.4635C20.5651 19.116 20.9358 18.3138 21.4918 17.6776L19.6769 15.8627ZM10.8824 20C10.8824 20 10.8824 19.7027 10.8824 19.5059V15.8198C10.8824 15.6749 10.8354 15.5401 10.7552 15.4306L8.50822 17.6776C9.06416 18.3138 9.43494 19.116 9.53651 20H10.8824ZM2.97647 20.4941C2.97647 19.2206 4.00885 18.1882 5.28235 18.1882C6.55586 18.1882 7.58824 19.2206 7.58824 20.4941C7.58824 21.7676 6.55586 22.8 5.28235 22.8C4.00885 22.8 2.97647 21.7676 2.97647 20.4941ZM22.4118 20.4941C22.4118 19.2206 23.4441 18.1882 24.7176 18.1882C25.9912 18.1882 27.0235 19.2206 27.0235 20.4941C27.0235 21.7676 25.9912 22.8 24.7176 22.8C23.4441 22.8 22.4118 21.7676 22.4118 20.4941Z" fill="currentColor"/>
</svg>
