<svg width="30" height="30" viewBox="0 0 30 30" fill="none" xmlns="http://www.w3.org/2000/svg">
    <path fill-rule="evenodd" clip-rule="evenodd" d="M1.93333 8.17778C1.93333 6.77778 2.4 6 4.11111 6H23.4C24.4971 6 25.4048 6.81129 25.5557 7.86667H21.8444C21.1572 7.86667 20.6 8.42382 20.6 9.11111V13.1556C20.6 13.8428 21.1572 14.4 21.8444 14.4H25.8889C27.0916 14.4 28.0667 15.375 28.0667 16.5778V20C28.5821 20 29 20.4179 29 20.9333C29 21.4488 28.5821 21.8667 28.0667 21.8667H25.8849C25.804 23.4267 24.5135 24.6667 22.9333 24.6667C21.3532 24.6667 20.0627 23.4267 19.9818 21.8667H10.9515C10.8706 23.4267 9.58013 24.6667 8 24.6667C6.41987 24.6667 5.12936 23.4267 5.04847 21.8667H1.93333C1.41787 21.8667 1 21.4488 1 20.9333C1 20.4179 1.41787 20 1.93333 20V8.17778ZM5.04444 14.4H9.08889C9.77618 14.4 10.3333 13.8428 10.3333 13.1556V9.11111C10.3333 8.42382 9.77618 7.86667 9.08889 7.86667H5.04444C4.35716 7.86667 3.8 8.42382 3.8 9.11111V13.1556C3.8 13.8428 4.35716 14.4 5.04444 14.4ZM13.4444 14.4H17.4889C18.1762 14.4 18.7333 13.8428 18.7333 13.1556V9.11111C18.7333 8.42382 18.1762 7.86667 17.4889 7.86667H13.4444C12.7572 7.86667 12.2 8.42382 12.2 9.11111V13.1556C12.2 13.8428 12.7572 14.4 13.4444 14.4ZM8 20.6222C7.39862 20.6222 6.91111 21.1097 6.91111 21.7111C6.91111 22.3125 7.39862 22.8 8 22.8C8.60138 22.8 9.08889 22.3125 9.08889 21.7111C9.08889 21.1097 8.60138 20.6222 8 20.6222ZM21.8444 21.7111C21.8444 21.1097 22.332 20.6222 22.9333 20.6222C23.5347 20.6222 24.0222 21.1097 24.0222 21.7111C24.0222 22.3125 23.5347 22.8 22.9333 22.8C22.332 22.8 21.8444 22.3125 21.8444 21.7111Z" fill="currentColor"/>
</svg>
