<svg width="30" height="30" viewBox="0 0 30 30" fill="none" xmlns="http://www.w3.org/2000/svg">
    <path fill-rule="evenodd" clip-rule="evenodd" d="M18.2417 6C17.9675 6 17.7106 6.1349 17.553 6.36155C17.3954 6.5882 17.3569 6.87819 17.4499 7.13877L18.51 10.1102H10.9173L10.3796 9.25984H11.7889C12.2537 9.25984 12.6306 8.87911 12.6306 8.40945C12.6306 7.93979 12.2537 7.55906 11.7889 7.55906H8.85555C8.8467 7.55891 8.86441 7.55891 8.85555 7.55906H8.28194C7.8171 7.55906 7.44028 7.93979 7.44028 8.40945C7.44028 8.87911 7.8171 9.25984 8.28194 9.25984H8.38201L9.49656 11.0225L8.28752 13.6093C7.96816 13.5454 7.63796 13.5118 7.3 13.5118C4.51096 13.5118 2.25 15.7962 2.25 18.6142C2.25 21.4321 4.51096 23.7165 7.3 23.7165C9.80227 23.7165 11.8795 21.8777 12.2802 19.4646H15.2958C15.6015 19.4646 15.8831 19.2971 16.0316 19.0272L19.4641 12.7846L20.0441 14.4104C18.4692 15.2742 17.4 16.9598 17.4 18.8976C17.4 21.7156 19.661 24 22.45 24C25.239 24 27.5 21.7156 27.5 18.8976C27.5 16.0797 25.239 13.7953 22.45 13.7953C22.1734 13.7953 21.902 13.8177 21.6375 13.861L19.4397 7.70079H20.9069C21.3718 7.70079 21.7486 7.32005 21.7486 6.85039C21.7486 6.38073 21.3718 6 20.9069 6H18.2417ZM20.6251 16.0387L21.7985 19.3277C21.9561 19.7696 22.4384 19.9986 22.8757 19.8394C23.313 19.6801 23.5397 19.1928 23.3821 18.751L22.2235 15.5036C22.2984 15.4986 22.3739 15.4961 22.45 15.4961C24.3094 15.4961 25.8167 17.019 25.8167 18.8976C25.8167 20.7763 24.3094 22.2992 22.45 22.2992C20.5906 22.2992 19.0833 20.7763 19.0833 18.8976C19.0833 17.6986 19.6974 16.6444 20.6251 16.0387ZM12.2802 17.7638H13.7593L10.567 12.7152L9.86469 14.2179C11.122 14.9682 12.0294 16.2535 12.2802 17.7638ZM9.14118 15.7659C9.83351 16.2237 10.3488 16.9322 10.5606 17.7638H8.20741L9.14118 15.7659ZM7.5344 15.2207L6.11809 18.2511C5.99497 18.5145 6.01388 18.8233 6.16822 19.0694C6.32255 19.3154 6.59083 19.4646 6.87917 19.4646H10.5606C10.1869 20.9317 8.86873 22.0157 7.3 22.0157C5.44064 22.0157 3.93333 20.4928 3.93333 18.6142C3.93333 16.7355 5.44064 15.2126 7.3 15.2126C7.37879 15.2126 7.45696 15.2153 7.5344 15.2207ZM11.9928 11.811H18.0737L15.2454 16.9549L11.9928 11.811Z" fill="currentColor"/>
</svg>
