<svg width="30" height="30" viewBox="0 0 30 30" fill="none" xmlns="http://www.w3.org/2000/svg">
    <path d="M17.9078 7.07193C17.9078 8.21623 16.9801 9.14386 15.8358 9.14386C14.6916 9.14386 13.7639 8.21623 13.7639 7.07193C13.7639 5.92764 14.6916 5 15.8358 5C16.9801 5 17.9078 5.92764 17.9078 7.07193Z" fill="currentColor"/>
    <path d="M11.2776 18.951L13.0733 20.3323L12.5208 21.0229L10.3959 24.5079C10.1406 24.9266 9.58877 25.0494 9.18005 24.7786C8.80442 24.5298 8.68287 24.0341 8.90074 23.6397L10.92 19.9841C10.9741 19.8862 11.0181 19.783 11.0514 19.6762L11.2776 18.951Z" fill="currentColor"/>
    <path d="M15.8719 14.9573C15.6287 15.9788 15.4239 16.8388 15.5596 17.0172C16.1283 17.7652 16.7996 18.9225 17.1376 19.5243C17.2834 19.7839 17.3759 20.069 17.4163 20.3641L17.9093 23.9645C17.9825 24.4987 17.5786 24.9794 17.0398 24.9994C16.5866 25.0162 16.19 24.6974 16.1089 24.2513L15.5324 21.0807C15.4609 20.6872 15.2494 20.3328 14.9371 20.0829L11.8704 17.6296C11.494 17.3285 11.2662 16.8791 11.2663 16.397C11.2667 15.4398 11.3195 13.8437 11.6471 13.2276C11.5843 13.214 11.5152 13.2042 11.4441 13.1989C10.9875 13.2739 10.5973 13.5732 10.4074 13.9976L9.45373 16.1286C9.25187 16.5797 8.67998 16.7212 8.2911 16.4163C8.01678 16.2012 7.92396 15.827 8.06595 15.5086L8.62472 14.2558C8.64996 14.1992 8.67646 14.1432 8.70417 14.088C8.8008 13.8475 8.88512 13.6619 8.91644 13.593C8.92458 13.5751 8.92941 13.564 8.92941 13.564C9.26092 12.2379 10.0805 11.6302 10.4488 11.492L13.4877 10.1108C14.5927 9.55825 15.6259 10.2037 16.2502 11.0777C16.7655 11.7991 16.225 13.4741 15.8719 14.9573Z" fill="currentColor"/>
    <path d="M17.079 12.7352V14.9453C17.5355 15.4017 18.0727 15.7695 18.6634 16.0298L20.0028 16.6202C20.4276 16.8074 20.9243 16.6239 21.1253 16.2055C21.3316 15.7763 21.15 15.2612 20.7202 15.0562L18.6771 14.0818C18.5333 14.0132 18.4002 13.9243 18.2818 13.8177L17.079 12.7352Z" fill="currentColor"/>
</svg>
