<svg width="20" height="20" viewBox="0 0 20 20" fill="none" xmlns="http://www.w3.org/2000/svg">
    <path d="M8.84436 2.2431C9.32838 1.30362 10.6716 1.30362 11.1556 2.2431L11.7922 3.47866C12.083 4.04318 12.7392 4.31496 13.344 4.12144L14.6678 3.69788C15.6744 3.37582 16.6242 4.32564 16.3021 5.33221L15.8786 6.65599C15.685 7.26083 15.9568 7.91696 16.5213 8.2078L17.7569 8.84436C18.6964 9.32838 18.6964 10.6716 17.7569 11.1556L16.5213 11.7922C15.9568 12.083 15.685 12.7392 15.8786 13.344L16.3021 14.6678C16.6242 15.6744 15.6744 16.6242 14.6678 16.3021L13.344 15.8786C12.7392 15.685 12.083 15.9568 11.7922 16.5213L11.1556 17.7569C10.6716 18.6964 9.32838 18.6964 8.84436 17.7569L8.2078 16.5213C7.91696 15.9568 7.26083 15.685 6.65599 15.8786L5.33221 16.3021C4.32564 16.6242 3.37582 15.6744 3.69788 14.6678L4.12144 13.344C4.31496 12.7392 4.04318 12.083 3.47866 11.7922L2.2431 11.1556C1.30362 10.6716 1.30362 9.32838 2.2431 8.84436L3.47866 8.2078C4.04318 7.91696 4.31496 7.26083 4.12144 6.65599L3.69788 5.33221C3.37582 4.32564 4.32564 3.37582 5.33221 3.69788L6.65599 4.12144C7.26083 4.31496 7.91696 4.04318 8.2078 3.47866L8.84436 2.2431Z" fill="#0B8AFF"/>
    <g clip-path="url(#clip0)">
        <path d="M12.4638 7.44788C12.3754 7.44788 12.2879 7.46542 12.2064 7.49948C12.1248 7.53354 12.0509 7.58346 11.9888 7.64632L11.9782 7.65706L9.42836 11.0712L8.01107 9.6539L8.01055 9.65337C7.94855 9.59076 7.87477 9.54103 7.79346 9.50706C7.71193 9.473 7.62444 9.45546 7.53607 9.45546C7.4477 9.45546 7.36021 9.473 7.27868 9.50706C7.19755 9.54095 7.12391 9.59054 7.062 9.65295C6.99958 9.71487 6.95 9.7885 6.91611 9.86963C6.88204 9.95117 6.8645 10.0387 6.8645 10.127C6.8645 10.2154 6.88204 10.3029 6.91611 10.3844C6.95008 10.4657 6.99982 10.5395 7.06244 10.6015L7.06294 10.602L8.97377 12.5129C9.23714 12.7762 9.66309 12.7762 9.92646 12.5129L9.93655 12.5028L12.9484 8.58278C13.0059 8.52315 13.0518 8.45333 13.0837 8.37684C13.1178 8.2953 13.1353 8.20781 13.1353 8.11944C13.1353 8.03108 13.1178 7.94359 13.0837 7.86205C13.0498 7.78093 13.0003 7.7073 12.9379 7.64539C12.8759 7.58296 12.8023 7.53338 12.7212 7.49948C12.6396 7.46542 12.5521 7.44788 12.4638 7.44788Z" fill="white"/>
    </g>
    <defs>
        <clipPath id="clip0">
            <rect width="7" height="7" fill="white" transform="translate(6.5 6.5)"/>
        </clipPath>
    </defs>
</svg>
