<svg width="32" height="32" viewBox="0 0 32 32" fill="none" xmlns="http://www.w3.org/2000/svg">
<path d="M23.26 11.4951C22.5153 11.2259 21.7289 11.0901 20.937 11.0941C18.38 11.0941 16.573 12.3861 16.562 14.2351C16.541 15.5941 17.843 16.3601 18.827 16.8181C19.838 17.2871 20.176 17.5791 20.171 17.9951C20.166 18.6361 19.363 18.9221 18.624 18.9221C17.597 18.9221 17.04 18.7821 16.181 18.4221L15.862 18.2711L15.498 20.4071C16.123 20.6621 17.243 20.8861 18.399 20.9071C21.123 20.9071 22.899 19.6261 22.919 17.6511C22.94 16.5681 22.243 15.7461 20.758 15.0681C19.862 14.6311 19.301 14.3331 19.301 13.8851C19.301 13.4891 19.78 13.0731 20.78 13.0731C21.4436 13.0565 22.1034 13.1787 22.717 13.4321L22.962 13.5411L23.321 11.4841L23.26 11.4951ZM29.907 11.2711H27.907C27.282 11.2711 26.818 11.4381 26.542 12.0581L22.698 20.7711H25.417L25.965 19.3441L29.282 19.3491C29.365 19.6821 29.599 20.7701 29.599 20.7701H32L29.907 11.2711ZM12.88 11.1931H15.469L13.849 20.6971H11.26L12.88 11.1881V11.1931ZM6.297 16.4271L6.562 17.7501L9.098 11.2711H11.843L7.759 20.7551H5.026L2.786 12.7241C2.76884 12.6574 2.73826 12.5949 2.69614 12.5404C2.65402 12.4858 2.60123 12.4405 2.541 12.4071C1.73638 11.9886 0.882829 11.6718 0 11.4641L0.031 11.2651H4.208C4.771 11.2861 5.229 11.4641 5.385 12.0681L6.297 16.4321V16.4271ZM26.703 17.4011L27.74 14.7401C27.724 14.7651 27.953 14.1931 28.083 13.8331L28.26 14.6501L28.86 17.3951H26.703V17.4011Z" fill="#025CF8"/>
</svg>
