<svg width="23" height="22" viewBox="0 0 23 22" fill="none" xmlns="http://www.w3.org/2000/svg">
    <path fill-rule="evenodd" clip-rule="evenodd" d="M5.99712 19.4078C7.51116 20.3187 9.28848 20.7741 11.0658 20.7741V20.774C12.909 20.774 14.7521 20.2535 16.2662 19.2776C21.0057 16.4147 22.3881 10.3637 19.4917 5.67903C16.5953 0.994394 10.4734 -0.371988 5.73383 2.4908C0.994303 5.35368 -0.388092 11.4699 2.50834 16.0894L2.77163 16.4799L1.78426 20.1885L5.60219 19.2125L5.99712 19.4078ZM16.1345 13.2266L16.8586 13.552C16.9902 13.617 17.0561 13.6821 17.0561 13.6821V14.1376L17.0558 14.1389C16.99 14.4637 16.9243 14.7885 16.7928 15.0484C16.7269 15.1786 16.5953 15.3087 16.4636 15.4388C16.3978 15.5039 16.332 15.5527 16.2662 15.6015C16.2004 15.6502 16.1345 15.699 16.0687 15.7641L15.937 15.8943C15.8631 15.9674 15.7891 15.9994 15.7036 16.0365C15.6368 16.0654 15.5628 16.0975 15.4763 16.1545C15.2129 16.2847 14.818 16.4148 14.4888 16.4148H13.8306C13.7318 16.3822 13.6165 16.3659 13.5012 16.3496C13.3861 16.3334 13.271 16.3171 13.1723 16.2846C11.395 15.8292 9.81515 14.9834 8.43275 13.8121C8.34681 13.6847 8.23279 13.585 8.10905 13.4769C8.04326 13.4193 7.97471 13.3594 7.90618 13.2916L7.6429 13.0314C6.58956 12.0555 5.7997 10.9493 5.20726 9.71316L5.14139 9.51794C4.94388 9.06248 4.81224 8.54191 4.81224 8.02144C4.81224 7.30574 5.07552 6.59004 5.53632 6.00446C5.60214 5.93936 5.65152 5.8743 5.7009 5.80924C5.75028 5.74418 5.79966 5.67912 5.86548 5.61401C5.93135 5.58148 5.99721 5.53266 6.06308 5.48383C6.12886 5.43507 6.19463 5.38631 6.26041 5.35378L6.32627 5.28876C6.39214 5.28876 6.45797 5.27249 6.52379 5.25621C6.58961 5.23994 6.65543 5.22366 6.7213 5.22366H7.44538C7.6429 5.28877 7.77444 5.35378 7.90618 5.549C8.1036 5.93936 8.89355 7.69609 8.95933 8.02144C9.0252 8.21666 8.95933 8.4769 8.82768 8.67212C8.76187 8.73717 8.71253 8.81846 8.66317 8.89977C8.61379 8.98111 8.56441 9.06246 8.49853 9.12758C8.30111 9.32271 8.03783 9.64806 8.03783 9.64806C7.97196 9.71316 7.97196 9.84328 7.97196 9.9734C7.99714 10.0232 8.0127 10.0634 8.02598 10.0977C8.04744 10.1532 8.06297 10.1934 8.1036 10.2336L8.16947 10.3638C8.49853 10.9493 8.95933 11.4699 9.42013 11.9254C9.48595 11.9904 9.56824 12.0555 9.65053 12.1205C9.73281 12.1856 9.8151 12.2507 9.88092 12.3157C10.4076 12.8362 11.0658 13.2266 11.7899 13.552L12.119 13.6821C12.1849 13.7471 12.3166 13.8122 12.3823 13.8122H12.4482C12.5798 13.8122 12.7115 13.7471 12.7774 13.617C13.699 12.576 13.7647 12.5109 13.7647 12.5109C13.8964 12.4458 14.028 12.3807 14.2255 12.3807C14.2585 12.3807 14.2914 12.397 14.3243 12.4133C14.3572 12.4296 14.3901 12.4458 14.423 12.4458C15.0813 12.7712 16.1345 13.2266 16.1345 13.2266Z" fill="#00E676"/>
</svg>
